<svg xmlns="http://www.w3.org/2000/svg" xmlns:xlink="http://www.w3.org/1999/xlink" contentStyleType="text/css" data-diagram-type="CLASS" height="367px" preserveAspectRatio="none" style="width:1076px;height:367px;background:#FFFFFF;" version="1.1" viewBox="0 0 1076 367" width="1076px" zoomAndPan="magnify"><defs/><g><!--class cpuid_ctx--><g class="entity" data-entity="cpuid_ctx" data-source-line="1" data-uid="ent0002" id="entity_cpuid_ctx"><rect fill="#F1F1F1" height="64.2969" rx="2.5" ry="2.5" style="stroke:#181818;stroke-width:0.5;" width="193.1523" x="647.15" y="7"/><ellipse cx="706.1236" cy="23" fill="#ADD1B2" rx="11" ry="11" style="stroke:#181818;stroke-width:1;"/><path d="M709.0924,28.6406 Q708.5143,28.9375 707.8736,29.0781 Q707.233,29.2344 706.5299,29.2344 Q704.0299,29.2344 702.7018,27.5938 Q701.3893,25.9375 701.3893,22.8125 Q701.3893,19.6875 702.7018,18.0313 Q704.0299,16.375 706.5299,16.375 Q707.233,16.375 707.8736,16.5313 Q708.5299,16.6875 709.0924,16.9844 L709.0924,19.7031 Q708.4674,19.125 707.8736,18.8594 Q707.2799,18.5781 706.6549,18.5781 Q705.3111,18.5781 704.6236,19.6563 Q703.9361,20.7188 703.9361,22.8125 Q703.9361,24.9063 704.6236,25.9844 Q705.3111,27.0469 706.6549,27.0469 Q707.2799,27.0469 707.8736,26.7813 Q708.4674,26.5 709.0924,25.9219 L709.0924,28.6406 Z " fill="#000000"/><text fill="#000000" font-family="sans-serif" font-size="14" lengthAdjust="spacing" textLength="66.7051" x="726.6236" y="27.8467">cpuid_ctx</text><line style="stroke:#181818;stroke-width:0.5;" x1="648.15" x2="839.3023" y1="39" y2="39"/><line style="stroke:#181818;stroke-width:0.5;" x1="648.15" x2="839.3023" y1="47" y2="47"/><ellipse cx="658.15" cy="60.6484" fill="#84BE84" rx="3" ry="3" style="stroke:#038048;stroke-width:1;"/><text fill="#000000" font-family="sans-serif" font-size="14" lengthAdjust="spacing" textLength="167.1523" x="667.15" y="63.9951">core(): unsigned int = 0</text></g><!--class cpuid_basic_ctx--><g class="entity" data-entity="cpuid_basic_ctx" data-source-line="5" data-uid="ent0003" id="entity_cpuid_basic_ctx"><rect fill="#F1F1F1" height="96.8906" rx="2.5" ry="2.5" style="stroke:#181818;stroke-width:0.5;" width="187.5537" x="649.94" y="132.3"/><ellipse cx="680.3173" cy="148.3" fill="#ADD1B2" rx="11" ry="11" style="stroke:#181818;stroke-width:1;"/><path d="M683.2861,153.9406 Q682.708,154.2375 682.0673,154.3781 Q681.4267,154.5344 680.7236,154.5344 Q678.2236,154.5344 676.8955,152.8938 Q675.583,151.2375 675.583,148.1125 Q675.583,144.9875 676.8955,143.3313 Q678.2236,141.675 680.7236,141.675 Q681.4267,141.675 682.0673,141.8313 Q682.7236,141.9875 683.2861,142.2844 L683.2861,145.0031 Q682.6611,144.425 682.0673,144.1594 Q681.4736,143.8781 680.8486,143.8781 Q679.5048,143.8781 678.8173,144.9563 Q678.1298,146.0188 678.1298,148.1125 Q678.1298,150.2063 678.8173,151.2844 Q679.5048,152.3469 680.8486,152.3469 Q681.4736,152.3469 682.0673,152.0813 Q682.6611,151.8 683.2861,151.2219 L683.2861,153.9406 Z " fill="#000000"/><text fill="#000000" font-family="sans-serif" font-size="14" lengthAdjust="spacing" textLength="110.0518" x="697.7345" y="153.1467">cpuid_basic_ctx</text><rect fill="#FFFFFF" height="15.9688" style="stroke:#181818;stroke-width:1;stroke-dasharray:2,2;" width="9.3301" x="831.1636" y="129.3"/><text fill="#000000" font-family="sans-serif" font-size="12" font-style="italic" lengthAdjust="spacing" textLength="7.3301" x="832.1636" y="141.4387">T</text><line style="stroke:#181818;stroke-width:0.5;" x1="650.94" x2="836.4937" y1="164.3" y2="164.3"/><rect fill="none" height="6" style="stroke:#C82930;stroke-width:1;" width="6" x="657.94" y="174.9484"/><text fill="#000000" font-family="sans-serif" font-size="14" lengthAdjust="spacing" textLength="161.5537" x="669.94" y="181.2951">value_: shared_ptr&lt;T&gt;</text><line style="stroke:#181818;stroke-width:0.5;" x1="650.94" x2="836.4937" y1="188.5969" y2="188.5969"/><ellipse cx="660.94" cy="202.2453" fill="#84BE84" rx="3" ry="3" style="stroke:#038048;stroke-width:1;"/><text fill="#000000" font-family="sans-serif" font-size="14" lengthAdjust="spacing" textLength="137.6143" x="669.94" y="205.592">core(): unsigned int</text><ellipse cx="660.94" cy="218.5422" fill="#84BE84" rx="3" ry="3" style="stroke:#038048;stroke-width:1;"/><text fill="#000000" font-family="sans-serif" font-size="14" lengthAdjust="spacing" textLength="77.7998" x="669.94" y="221.8889">value(): T&amp;</text></g><!--class T--><g class="entity" data-entity="T" data-source-line="13" data-uid="ent0005" id="entity_T"><rect fill="#F1F1F1" height="80.5938" rx="2.5" ry="2.5" style="stroke:#181818;stroke-width:0.5;" width="163.6143" x="872.91" y="140.45"/><ellipse cx="946.1913" cy="156.45" fill="#ADD1B2" rx="11" ry="11" style="stroke:#181818;stroke-width:1;"/><path d="M949.16,162.0906 Q948.5819,162.3875 947.9413,162.5281 Q947.3006,162.6844 946.5975,162.6844 Q944.0975,162.6844 942.7694,161.0438 Q941.4569,159.3875 941.4569,156.2625 Q941.4569,153.1375 942.7694,151.4813 Q944.0975,149.825 946.5975,149.825 Q947.3006,149.825 947.9413,149.9813 Q948.5975,150.1375 949.16,150.4344 L949.16,153.1531 Q948.535,152.575 947.9413,152.3094 Q947.3475,152.0281 946.7225,152.0281 Q945.3788,152.0281 944.6913,153.1063 Q944.0038,154.1688 944.0038,156.2625 Q944.0038,158.3563 944.6913,159.4344 Q945.3788,160.4969 946.7225,160.4969 Q947.3475,160.4969 947.9413,160.2313 Q948.535,159.95 949.16,159.3719 L949.16,162.0906 Z " fill="#000000"/><text fill="#000000" font-family="sans-serif" font-size="14" lengthAdjust="spacing" textLength="8.5518" x="966.6913" y="161.2967">T</text><line style="stroke:#181818;stroke-width:0.5;" x1="873.91" x2="1035.5243" y1="172.45" y2="172.45"/><rect fill="none" height="6" style="stroke:#C82930;stroke-width:1;" width="6" x="880.91" y="183.0984"/><text fill="#000000" font-family="sans-serif" font-size="14" lengthAdjust="spacing" textLength="133.6904" x="892.91" y="189.4451">core_: unsigned int</text><line style="stroke:#181818;stroke-width:0.5;" x1="873.91" x2="1035.5243" y1="196.7469" y2="196.7469"/><ellipse cx="883.91" cy="210.3953" fill="#84BE84" rx="3" ry="3" style="stroke:#038048;stroke-width:1;"/><text fill="#000000" font-family="sans-serif" font-size="14" lengthAdjust="spacing" textLength="137.6143" x="892.91" y="213.742">core(): unsigned int</text></g><g class="entity" data-entity="GMN6" data-source-line="18" data-uid="ent0007" id="entity_GMN6"><path d="M839.7,290.19 L839.7,360.7213 A0,0 0 0 0 839.7,360.7213 L1069.7347,360.7213 A0,0 0 0 0 1069.7347,360.7213 L1069.7347,300.19 L1059.7347,290.19 L958.72,290.19 L954.72,221.5 L950.72,290.19 L839.7,290.19 A0,0 0 0 0 839.7,290.19" fill="#FEFFDD" style="stroke:#181818;stroke-width:0.5;"/><path d="M1059.7347,290.19 L1059.7347,300.19 L1069.7347,300.19 L1059.7347,290.19" fill="#FEFFDD" style="stroke:#181818;stroke-width:0.5;"/><text fill="#000000" font-family="sans-serif" font-size="13" lengthAdjust="spacing" textLength="181.2764" x="845.7" y="307.2569">The class T can be arbitrary</text><text fill="#000000" font-family="sans-serif" font-size="13" lengthAdjust="spacing" textLength="207.0986" x="845.7" y="322.3897">complex. It exposes the current</text><text fill="#000000" font-family="sans-serif" font-size="13" lengthAdjust="spacing" textLength="209.0347" x="845.7" y="337.5225">core via the method core(), that</text><text fill="#000000" font-family="sans-serif" font-size="13" lengthAdjust="spacing" textLength="191.0454" x="845.7" y="352.6553">cpuid_basic_ctx can return it.</text></g><!--class cpuidreader_X--><g class="entity" data-entity="cpuidreader_X" data-source-line="26" data-uid="ent0010" id="entity_cpuidreader_X"><rect fill="#F1F1F1" height="80.5938" rx="2.5" ry="2.5" style="stroke:#181818;stroke-width:0.5;" width="517.4424" x="7" y="140.45"/><ellipse cx="210.957" cy="156.45" fill="#ADD1B2" rx="11" ry="11" style="stroke:#181818;stroke-width:1;"/><path d="M213.9258,162.0906 Q213.3477,162.3875 212.707,162.5281 Q212.0664,162.6844 211.3633,162.6844 Q208.8633,162.6844 207.5352,161.0438 Q206.2227,159.3875 206.2227,156.2625 Q206.2227,153.1375 207.5352,151.4813 Q208.8633,149.825 211.3633,149.825 Q212.0664,149.825 212.707,149.9813 Q213.3633,150.1375 213.9258,150.4344 L213.9258,153.1531 Q213.3008,152.575 212.707,152.3094 Q212.1133,152.0281 211.4883,152.0281 Q210.1445,152.0281 209.457,153.1063 Q208.7695,154.1688 208.7695,156.2625 Q208.7695,158.3563 209.457,159.4344 Q210.1445,160.4969 211.4883,160.4969 Q212.1133,160.4969 212.707,160.2313 Q213.3008,159.95 213.9258,159.3719 L213.9258,162.0906 Z " fill="#000000"/><text fill="#000000" font-family="sans-serif" font-size="14" lengthAdjust="spacing" textLength="101.0283" x="231.457" y="161.2967">cpuidreader_X</text><line style="stroke:#181818;stroke-width:0.5;" x1="8" x2="523.4424" y1="172.45" y2="172.45"/><rect fill="none" height="6" style="stroke:#C82930;stroke-width:1;" width="6" x="15" y="183.0984"/><text fill="#000000" font-family="sans-serif" font-size="14" lengthAdjust="spacing" textLength="175.8887" x="27" y="189.4451">ctx_: std::shared_ptr&lt;T&gt;</text><line style="stroke:#181818;stroke-width:0.5;" x1="8" x2="523.4424" y1="196.7469" y2="196.7469"/><ellipse cx="18" cy="210.3953" fill="#84BE84" rx="3" ry="3" style="stroke:#038048;stroke-width:1;"/><text fill="#000000" font-family="sans-serif" font-size="14" lengthAdjust="spacing" textLength="491.4424" x="27" y="213.742">enable_core(core: unsigned int): std::optional&lt;detail::cpuid_dev_ctx&gt;</text></g><g class="entity" data-entity="GMN11" data-source-line="31" data-uid="ent0012" id="entity_GMN11"><path d="M131.54,290.19 L131.54,360.7213 A0,0 0 0 0 131.54,360.7213 L399.9082,360.7213 A0,0 0 0 0 399.9082,360.7213 L399.9082,300.19 L389.9082,290.19 L269.72,290.19 L265.72,221.5 L261.72,290.19 L131.54,290.19 A0,0 0 0 0 131.54,290.19" fill="#FEFFDD" style="stroke:#181818;stroke-width:0.5;"/><path d="M389.9082,290.19 L389.9082,300.19 L399.9082,300.19 L389.9082,290.19" fill="#FEFFDD" style="stroke:#181818;stroke-width:0.5;"/><text fill="#000000" font-family="sans-serif" font-size="13" lengthAdjust="spacing" textLength="247.3682" x="137.54" y="307.2569">Creates its own context T and assigns</text><text fill="#000000" font-family="sans-serif" font-size="13" lengthAdjust="spacing" textLength="246.6509" x="137.54" y="322.3897">it to `ctx_`. Passes the shraed pointer</text><text fill="#000000" font-family="sans-serif" font-size="13" lengthAdjust="spacing" textLength="180.5083" x="137.54" y="337.5225">to a new class derived from</text><text fill="#000000" font-family="sans-serif" font-size="13" lengthAdjust="spacing" textLength="216.6138" x="137.54" y="352.6553">cpuid_basic_ctx and returns that.</text></g><!--reverse link cpuid_ctx to cpuid_basic_ctx--><g class="link" data-entity-1="cpuid_ctx" data-entity-2="cpuid_basic_ctx" data-source-line="11" data-uid="lnk4" id="link_cpuid_ctx_cpuid_basic_ctx"><path codeLine="11" d="M743.72,89.48 C743.72,107.32 743.72,112.05 743.72,132.06" fill="none" id="cpuid_ctx-backto-cpuid_basic_ctx" style="stroke:#181818;stroke-width:1;"/><polygon fill="none" points="743.72,71.48,737.72,89.48,749.72,89.48,743.72,71.48" style="stroke:#181818;stroke-width:1;"/></g><!--reverse link cpuid_basic_ctx to T--><g class="link" data-entity-1="cpuid_basic_ctx" data-entity-2="T" data-source-line="24" data-uid="lnk9" id="link_cpuid_basic_ctx_T"><path codeLine="24" d="M849.68,180.74 C861.26,180.74 860.85,180.74 872.43,180.74" fill="none" id="cpuid_basic_ctx-backto-T" style="stroke:#181818;stroke-width:1;"/><polygon fill="#181818" points="837.68,180.74,843.68,184.74,849.68,180.74,843.68,176.74,837.68,180.74" style="stroke:#181818;stroke-width:1;"/></g><!--link cpuidreader_X to cpuid_basic_ctx--><g class="link" data-entity-1="cpuidreader_X" data-entity-2="cpuid_basic_ctx" data-source-line="37" data-uid="lnk14" id="link_cpuidreader_X_cpuid_basic_ctx"><path codeLine="37" d="M524.66,180.74 C569.37,180.74 607.15,180.74 643.67,180.74" fill="none" id="cpuidreader_X-to-cpuid_basic_ctx" style="stroke:#181818;stroke-width:1;"/><polygon fill="#181818" points="649.67,180.74,640.67,176.74,644.67,180.74,640.67,184.74,649.67,180.74" style="stroke:#181818;stroke-width:1;"/><text fill="#000000" font-family="sans-serif" font-size="13" lengthAdjust="spacing" textLength="89.1528" x="542.69" y="158.8069">enable_core()</text><text fill="#000000" font-family="sans-serif" font-size="13" lengthAdjust="spacing" textLength="62.9434" x="555.7947" y="173.9397">&#171;returns&#187;</text></g><!--SRC=[XP4nJyGm38Nt_WfFY0DwOgvA5oOsXWuCIBsqCJHIBwaIjrS4zzznqlIuAn9qw60_-pr_QJhX73Jze6JLq0IV2V1tsnYBrviC1ktKkqO9IXCym7roJ9BcRAGMJZL-C2-BlsRdpYYw8RJAgr18Gw7AmBN2egnwihmdU9m2vL-fJDTkIuZoNy_KTwfLuvXeGmYr8JBx82jRX6Lb8pJK2CBMYgom7q7Gc7tVuRI59mASUkFG0VcXmLgCNjuAHYL2Ou_K6Wbpi3ikYIYwl2IuMQJ1Qb2qJL1ByE4M13_2czIcK5xWjoWaskfbeO1Qr1rMmTF_BizcF8vabfcUbD6YooMIK5sMpKuIH-zJH6mqLL6_VfmrkqUEGOn3aGDpq7oo9fo8IGe-XiDo0XUKYe0CxFpktHQUkHKfkjOA3jaRZeasQ5aeGECXFWlVgKQMlDdekiRZlMQEBi3-XV84YpaMlyOpE8UtUTLv7hSLnJS0]--></g></svg>