<svg xmlns="http://www.w3.org/2000/svg" xmlns:xlink="http://www.w3.org/1999/xlink" contentStyleType="text/css" data-diagram-type="CLASS" height="705px" preserveAspectRatio="none" style="width:761px;height:705px;background:#FFFFFF;" version="1.1" viewBox="0 0 761 705" width="761px" zoomAndPan="magnify"><defs/><g><!--cluster detail--><g class="cluster" data-entity="detail" data-source-line="1" data-uid="ent0002" id="cluster_detail"><path d="M8.5,324.78 L54.7539,324.78 A3.75,3.75 0 0 1 57.2539,327.28 L64.2539,347.0769 L592.5,347.0769 A2.5,2.5 0 0 1 595,349.5769 L595,567.96 A2.5,2.5 0 0 1 592.5,570.46 L8.5,570.46 A2.5,2.5 0 0 1 6,567.96 L6,327.28 A2.5,2.5 0 0 1 8.5,324.78" fill="none" style="stroke:#000000;stroke-width:1.5;"/><line style="stroke:#000000;stroke-width:1.5;" x1="6" x2="64.2539" y1="347.0769" y2="347.0769"/><text fill="#000000" font-family="sans-serif" font-size="14" font-weight="bold" lengthAdjust="spacing" textLength="45.2539" x="10" y="339.7751">detail</text></g><!--class cpuid_dev_file--><g class="entity" data-entity="cpuid_dev_file" data-source-line="3" data-uid="ent0003" id="entity_cpuid_dev_file"><rect fill="#F1F1F1" height="194.6719" rx="2.5" ry="2.5" style="stroke:#181818;stroke-width:0.5;" width="166.2598" x="412.87" y="359.78"/><ellipse cx="443.584" cy="375.78" fill="#ADD1B2" rx="11" ry="11" style="stroke:#181818;stroke-width:1;"/><path d="M446.5527,381.4206 Q445.9746,381.7175 445.334,381.8581 Q444.6933,382.0144 443.9902,382.0144 Q441.4902,382.0144 440.1621,380.3738 Q438.8496,378.7175 438.8496,375.5925 Q438.8496,372.4675 440.1621,370.8113 Q441.4902,369.155 443.9902,369.155 Q444.6933,369.155 445.334,369.3113 Q445.9902,369.4675 446.5527,369.7644 L446.5527,372.4831 Q445.9277,371.905 445.334,371.6394 Q444.7402,371.3581 444.1152,371.3581 Q442.7715,371.3581 442.084,372.4363 Q441.3965,373.4988 441.3965,375.5925 Q441.3965,377.6863 442.084,378.7644 Q442.7715,379.8269 444.1152,379.8269 Q444.7402,379.8269 445.334,379.5613 Q445.9277,379.28 446.5527,378.7019 L446.5527,381.4206 Z " fill="#000000"/><text fill="#000000" font-family="sans-serif" font-size="14" lengthAdjust="spacing" textLength="99.3398" x="461.076" y="380.6267">cpuid_dev_file</text><line style="stroke:#181818;stroke-width:0.5;" x1="413.87" x2="578.1298" y1="391.78" y2="391.78"/><rect fill="none" height="6" style="stroke:#C82930;stroke-width:1;" width="6" x="420.87" y="402.4284"/><text fill="#000000" font-family="sans-serif" font-size="14" lengthAdjust="spacing" textLength="48.2344" x="432.87" y="408.7751">fd_: int</text><rect fill="none" height="6" style="stroke:#C82930;stroke-width:1;" width="6" x="420.87" y="418.7253"/><text fill="#000000" font-family="sans-serif" font-size="14" lengthAdjust="spacing" textLength="133.6904" x="432.87" y="425.072">core_: unsigned int</text><rect fill="none" height="6" style="stroke:#C82930;stroke-width:1;" width="6" x="420.87" y="435.0222"/><text fill="#000000" font-family="sans-serif" font-size="14" lengthAdjust="spacing" textLength="68.8652" x="432.87" y="441.3689">error_: int</text><rect fill="none" height="6" style="stroke:#C82930;stroke-width:1;" width="6" x="420.87" y="451.3191"/><text fill="#000000" font-family="sans-serif" font-size="14" lengthAdjust="spacing" textLength="125.4189" x="432.87" y="457.6657">cpuid_: cpuid_dev</text><line style="stroke:#181818;stroke-width:0.5;" x1="413.87" x2="578.1298" y1="464.9675" y2="464.9675"/><ellipse cx="423.87" cy="478.6159" fill="#84BE84" rx="3" ry="3" style="stroke:#038048;stroke-width:1;"/><text fill="#000000" font-family="sans-serif" font-size="14" lengthAdjust="spacing" textLength="40.8311" x="432.87" y="481.9626">bool()</text><ellipse cx="423.87" cy="494.9128" fill="#84BE84" rx="3" ry="3" style="stroke:#038048;stroke-width:1;"/><text fill="#000000" font-family="sans-serif" font-size="14" lengthAdjust="spacing" textLength="137.6143" x="432.87" y="498.2595">core(): unsigned int</text><ellipse cx="423.87" cy="511.2097" fill="#84BE84" rx="3" ry="3" style="stroke:#038048;stroke-width:1;"/><text fill="#000000" font-family="sans-serif" font-size="14" lengthAdjust="spacing" textLength="72.7891" x="432.87" y="514.5564">error(): int</text><ellipse cx="423.87" cy="527.5066" fill="#84BE84" rx="3" ry="3" style="stroke:#038048;stroke-width:1;"/><text fill="#000000" font-family="sans-serif" font-size="14" lengthAdjust="spacing" textLength="140.2598" x="432.87" y="530.8532">cpuid(): cpuid_dev&amp;</text><ellipse cx="423.87" cy="543.8034" fill="#84BE84" rx="3" ry="3" style="stroke:#038048;stroke-width:1;"/><text fill="#000000" font-family="sans-serif" font-size="14" lengthAdjust="spacing" textLength="86.0576" x="432.87" y="547.1501">close(): bool</text></g><!--class cpuid_dev_ctx--><g class="entity" data-entity="cpuid_dev_ctx" data-source-line="15" data-uid="ent0004" id="entity_cpuid_dev_ctx"><rect fill="#F1F1F1" height="113.1875" rx="2.5" ry="2.5" style="stroke:#181818;stroke-width:0.5;" width="355.4375" x="22.28" y="400.53"/><ellipse cx="146.0036" cy="416.53" fill="#ADD1B2" rx="11" ry="11" style="stroke:#181818;stroke-width:1;"/><path d="M148.9724,422.1706 Q148.3943,422.4675 147.7536,422.6081 Q147.113,422.7644 146.4099,422.7644 Q143.9099,422.7644 142.5818,421.1238 Q141.2693,419.4675 141.2693,416.3425 Q141.2693,413.2175 142.5818,411.5613 Q143.9099,409.905 146.4099,409.905 Q147.113,409.905 147.7536,410.0613 Q148.4099,410.2175 148.9724,410.5144 L148.9724,413.2331 Q148.3474,412.655 147.7536,412.3894 Q147.1599,412.1081 146.5349,412.1081 Q145.1911,412.1081 144.5036,413.1863 Q143.8161,414.2488 143.8161,416.3425 Q143.8161,418.4363 144.5036,419.5144 Q145.1911,420.5769 146.5349,420.5769 Q147.1599,420.5769 147.7536,420.3113 Q148.3474,420.03 148.9724,419.4519 L148.9724,422.1706 Z " fill="#000000"/><text fill="#000000" font-family="sans-serif" font-size="14" lengthAdjust="spacing" textLength="99.4902" x="166.5036" y="421.3767">cpuid_dev_ctx</text><line style="stroke:#181818;stroke-width:0.5;" x1="23.28" x2="376.7175" y1="432.53" y2="432.53"/><rect fill="none" height="6" style="stroke:#C82930;stroke-width:1;" width="6" x="30.28" y="443.1784"/><text fill="#000000" font-family="sans-serif" font-size="14" lengthAdjust="spacing" textLength="329.4375" x="42.28" y="449.5251">cpuid_file_: shared_ptr&lt;detail::cpuid_dev_file&gt;</text><line style="stroke:#181818;stroke-width:0.5;" x1="23.28" x2="376.7175" y1="456.8269" y2="456.8269"/><ellipse cx="33.28" cy="470.4753" fill="#84BE84" rx="3" ry="3" style="stroke:#038048;stroke-width:1;"/><text fill="#000000" font-family="sans-serif" font-size="14" lengthAdjust="spacing" textLength="40.8311" x="42.28" y="473.822">bool()</text><ellipse cx="33.28" cy="486.7722" fill="#84BE84" rx="3" ry="3" style="stroke:#038048;stroke-width:1;"/><text fill="#000000" font-family="sans-serif" font-size="14" lengthAdjust="spacing" textLength="137.6143" x="42.28" y="490.1189">core(): unsigned int</text><ellipse cx="33.28" cy="503.0691" fill="#84BE84" rx="3" ry="3" style="stroke:#038048;stroke-width:1;"/><text fill="#000000" font-family="sans-serif" font-size="14" lengthAdjust="spacing" textLength="72.7891" x="42.28" y="506.4157">error(): int</text></g><!--class cpuid_dev--><g class="entity" data-entity="cpuid_dev" data-source-line="24" data-uid="ent0005" id="entity_cpuid_dev"><rect fill="#F1F1F1" height="80.5938" rx="2.5" ry="2.5" style="stroke:#181818;stroke-width:0.5;" width="462.8096" x="264.6" y="617.46"/><ellipse cx="456.2455" cy="633.46" fill="#ADD1B2" rx="11" ry="11" style="stroke:#181818;stroke-width:1;"/><path d="M459.2143,639.1006 Q458.6361,639.3975 457.9955,639.5381 Q457.3549,639.6944 456.6518,639.6944 Q454.1518,639.6944 452.8236,638.0537 Q451.5111,636.3975 451.5111,633.2725 Q451.5111,630.1475 452.8236,628.4912 Q454.1518,626.835 456.6518,626.835 Q457.3549,626.835 457.9955,626.9912 Q458.6518,627.1475 459.2143,627.4444 L459.2143,630.1631 Q458.5893,629.585 457.9955,629.3194 Q457.4018,629.0381 456.7768,629.0381 Q455.433,629.0381 454.7455,630.1162 Q454.058,631.1787 454.058,633.2725 Q454.058,635.3662 454.7455,636.4444 Q455.433,637.5069 456.7768,637.5069 Q457.4018,637.5069 457.9955,637.2412 Q458.5893,636.96 459.2143,636.3819 L459.2143,639.1006 Z " fill="#000000"/><text fill="#000000" font-family="sans-serif" font-size="14" lengthAdjust="spacing" textLength="71.0186" x="476.7455" y="638.3067">cpuid_dev</text><line style="stroke:#181818;stroke-width:0.5;" x1="265.6" x2="726.4096" y1="649.46" y2="649.46"/><line style="stroke:#181818;stroke-width:0.5;" x1="265.6" x2="726.4096" y1="657.46" y2="657.46"/><ellipse cx="275.6" cy="671.1084" fill="#84BE84" rx="3" ry="3" style="stroke:#038048;stroke-width:1;"/><text fill="#000000" font-family="sans-serif" font-size="14" lengthAdjust="spacing" textLength="119.9775" x="284.6" y="674.4551">has_cpuid(): bool</text><ellipse cx="275.6" cy="687.4053" fill="#84BE84" rx="3" ry="3" style="stroke:#038048;stroke-width:1;"/><text fill="#000000" font-family="sans-serif" font-size="14" lengthAdjust="spacing" textLength="436.8096" x="284.6" y="690.752">cpuid(eax: cpuidreg, ecx: cpuidreg): std::optional&lt;cpuid_res&gt;</text></g><!--class cpuidreader_dev--><g class="entity" data-entity="cpuidreader_dev" data-source-line="29" data-uid="ent0006" id="entity_cpuidreader_dev"><rect fill="#F1F1F1" height="145.7813" rx="2.5" ry="2.5" style="stroke:#181818;stroke-width:0.5;" width="517.4424" x="237.28" y="116"/><ellipse cx="433.1399" cy="132" fill="#ADD1B2" rx="11" ry="11" style="stroke:#181818;stroke-width:1;"/><path d="M436.1086,137.6406 Q435.5305,137.9375 434.8899,138.0781 Q434.2492,138.2344 433.5461,138.2344 Q431.0461,138.2344 429.718,136.5938 Q428.4055,134.9375 428.4055,131.8125 Q428.4055,128.6875 429.718,127.0313 Q431.0461,125.375 433.5461,125.375 Q434.2492,125.375 434.8899,125.5313 Q435.5461,125.6875 436.1086,125.9844 L436.1086,128.7031 Q435.4836,128.125 434.8899,127.8594 Q434.2961,127.5781 433.6711,127.5781 Q432.3274,127.5781 431.6399,128.6563 Q430.9524,129.7188 430.9524,131.8125 Q430.9524,133.9063 431.6399,134.9844 Q432.3274,136.0469 433.6711,136.0469 Q434.2961,136.0469 434.8899,135.7813 Q435.4836,135.5 436.1086,134.9219 L436.1086,137.6406 Z " fill="#000000"/><text fill="#000000" font-family="sans-serif" font-size="14" lengthAdjust="spacing" textLength="117.2227" x="453.6399" y="136.8467">cpuidreader_dev</text><line style="stroke:#181818;stroke-width:0.5;" x1="238.28" x2="753.7224" y1="148" y2="148"/><rect fill="none" height="6" style="stroke:#C82930;stroke-width:1;" width="6" x="245.28" y="158.6484"/><text fill="#000000" font-family="sans-serif" font-size="14" lengthAdjust="spacing" textLength="95.334" x="257.28" y="164.9951">default_: bool</text><rect fill="none" height="6" style="stroke:#C82930;stroke-width:1;" width="6" x="245.28" y="174.9453"/><text fill="#000000" font-family="sans-serif" font-size="14" lengthAdjust="spacing" textLength="329.4375" x="257.28" y="181.292">cpuid_file_: shared_ptr&lt;detail::cpuid_dev_file&gt;</text><line style="stroke:#181818;stroke-width:0.5;" x1="238.28" x2="753.7224" y1="188.5938" y2="188.5938"/><ellipse cx="248.28" cy="202.2422" fill="#84BE84" rx="3" ry="3" style="stroke:#038048;stroke-width:1;"/><text fill="#000000" font-family="sans-serif" font-size="14" lengthAdjust="spacing" textLength="119.9775" x="257.28" y="205.5889">has_cpuid(): bool</text><ellipse cx="248.28" cy="218.5391" fill="#84BE84" rx="3" ry="3" style="stroke:#038048;stroke-width:1;"/><text fill="#000000" font-family="sans-serif" font-size="14" lengthAdjust="spacing" textLength="110.8857" x="257.28" y="221.8857">is_online(): bool</text><ellipse cx="248.28" cy="234.8359" fill="#84BE84" rx="3" ry="3" style="stroke:#038048;stroke-width:1;"/><text fill="#000000" font-family="sans-serif" font-size="14" lengthAdjust="spacing" textLength="436.8096" x="257.28" y="238.1826">cpuid(eax: cpuidreg, ecx: cpuidreg): std::optional&lt;cpuid_res&gt;</text><ellipse cx="248.28" cy="251.1328" fill="#84BE84" rx="3" ry="3" style="stroke:#038048;stroke-width:1;"/><text fill="#000000" font-family="sans-serif" font-size="14" lengthAdjust="spacing" textLength="491.4424" x="257.28" y="254.4795">enable_core(core: unsigned int): std::optional&lt;detail::cpuid_dev_ctx&gt;</text></g><!--class User--><g class="entity" data-entity="User" data-source-line="44" data-uid="ent0011" id="entity_User"><rect fill="#F1F1F1" height="48" rx="2.5" ry="2.5" style="stroke:#181818;stroke-width:0.5;" width="63.9102" x="94.04" y="7"/><ellipse cx="109.04" cy="23" fill="#ADD1B2" rx="11" ry="11" style="stroke:#181818;stroke-width:1;"/><path d="M112.0088,28.6406 Q111.4306,28.9375 110.79,29.0781 Q110.1494,29.2344 109.4463,29.2344 Q106.9463,29.2344 105.6181,27.5938 Q104.3056,25.9375 104.3056,22.8125 Q104.3056,19.6875 105.6181,18.0313 Q106.9463,16.375 109.4463,16.375 Q110.1494,16.375 110.79,16.5313 Q111.4463,16.6875 112.0088,16.9844 L112.0088,19.7031 Q111.3838,19.125 110.79,18.8594 Q110.1963,18.5781 109.5713,18.5781 Q108.2275,18.5781 107.54,19.6563 Q106.8525,20.7188 106.8525,22.8125 Q106.8525,24.9063 107.54,25.9844 Q108.2275,27.0469 109.5713,27.0469 Q110.1963,27.0469 110.79,26.7813 Q111.3838,26.5 112.0088,25.9219 L112.0088,28.6406 Z " fill="#000000"/><text fill="#000000" font-family="sans-serif" font-size="14" lengthAdjust="spacing" textLength="31.9102" x="123.04" y="27.8467">User</text><line style="stroke:#181818;stroke-width:0.5;" x1="95.04" x2="156.9502" y1="39" y2="39"/><line style="stroke:#181818;stroke-width:0.5;" x1="95.04" x2="156.9502" y1="47" y2="47"/></g><!--reverse link cpuid_dev_file to cpuid_dev--><g class="link" data-entity-1="cpuid_dev_file" data-entity-2="cpuid_dev" data-source-line="38" data-uid="lnk7" id="link_cpuid_dev_file_cpuid_dev"><path codeLine="38" d="M496,566.82 C496,588.92 496,599.19 496,617.26" fill="none" id="cpuid_dev_file-backto-cpuid_dev" style="stroke:#181818;stroke-width:1;"/><polygon fill="#181818" points="496,554.82,492,560.82,496,566.82,500,560.82,496,554.82" style="stroke:#181818;stroke-width:1;"/></g><!--link cpuidreader_dev to cpuid_dev_ctx--><g class="link" data-entity-1="cpuidreader_dev" data-entity-2="cpuid_dev_ctx" data-source-line="39" data-uid="lnk8" id="link_cpuidreader_dev_cpuid_dev_ctx"><path codeLine="39" d="M415.9,261.94 C367.62,305.36 311.4808,355.8474 266.7908,396.0474" fill="none" id="cpuidreader_dev-to-cpuid_dev_ctx" style="stroke:#181818;stroke-width:1;stroke-dasharray:7,7;"/><polygon fill="#181818" points="262.33,400.06,271.6963,397.0149,266.0473,396.7161,266.3461,391.0672,262.33,400.06" style="stroke:#181818;stroke-width:1;"/><text fill="#000000" font-family="sans-serif" font-size="13" lengthAdjust="spacing" textLength="57.459" x="375.51" y="304.8469">&#171;create&#187;</text></g><!--reverse link cpuidreader_dev to cpuid_dev_file--><g class="link" data-entity-1="cpuidreader_dev" data-entity-2="cpuid_dev_file" data-source-line="40" data-uid="lnk9" id="link_cpuidreader_dev_cpuid_dev_file"><path codeLine="40" d="M496,273.94 C496,303.97 496,327.29 496,359.52" fill="none" id="cpuidreader_dev-backto-cpuid_dev_file" style="stroke:#181818;stroke-width:1;"/><polygon fill="#181818" points="496,261.94,492,267.94,496,273.94,500,267.94,496,261.94" style="stroke:#181818;stroke-width:1;"/></g><!--link cpuid_dev_file to cpuid_dev_ctx--><g class="link" data-entity-1="cpuid_dev_file" data-entity-2="cpuid_dev_ctx" data-source-line="42" data-uid="lnk10" id="link_cpuid_dev_file_cpuid_dev_ctx"><path codeLine="42" d="M412.61,457.12 C401.1,457.12 401.58,457.12 390.06,457.12" fill="none" id="cpuid_dev_file-to-cpuid_dev_ctx" style="stroke:#181818;stroke-width:1;"/><polygon fill="none" points="378.06,457.12,384.06,461.12,390.06,457.12,384.06,453.12,378.06,457.12" style="stroke:#181818;stroke-width:1;"/></g><!--reverse link User to cpuidreader_dev--><g class="link" data-entity-1="User" data-entity-2="cpuidreader_dev" data-source-line="46" data-uid="lnk12" id="link_User_cpuidreader_dev"><path codeLine="46" d="M169.2484,50.2197 C206.9584,66.1097 261.31,89.01 324.58,115.67" fill="none" id="User-backto-cpuidreader_dev" style="stroke:#181818;stroke-width:1;"/><polygon fill="#181818" points="158.19,45.56,162.1659,51.576,169.2484,50.2197,165.2724,44.2037,158.19,45.56" style="stroke:#181818;stroke-width:1;"/></g><!--reverse link User to cpuid_dev_ctx--><g class="link" data-entity-1="User" data-entity-2="cpuid_dev_ctx" data-source-line="47" data-uid="lnk13" id="link_User_cpuid_dev_ctx"><path codeLine="47" d="M124.9656,67.1753 C124.4956,84.0353 124.24,95.44 124,116 C123.23,180.79 111.99,198.11 124,261.78 C133.16,310.38 154.16,362.4 171.77,400.38" fill="none" id="User-backto-cpuid_dev_ctx" style="stroke:#181818;stroke-width:1;"/><polygon fill="none" points="125.3,55.18,121.1344,61.0662,124.9656,67.1753,129.1313,61.2891,125.3,55.18" style="stroke:#181818;stroke-width:1;"/><text fill="#000000" font-family="sans-serif" font-size="13" lengthAdjust="spacing" textLength="94.9165" x="125" y="193.4569">&#171;enable_core&#187;</text></g><!--SRC=[hLFRQiGW47tFL_XKThjrFq22Vz5dSNMoArWDQfQ5qd-lcficBRIm4WHdndFEd366Vu3lkG0a8N2bqMVJeBY4vjuZqGzACWbtrYaDCOUcTRfOgm_7zIoiWyEHeC5uTJKWaJ9XpO9prgLq5SteARhGl1H9RNr6J4nB67UIrIWuCRDVY74ctjt8T0LjJdtztBW8ZoVtFV4dHwC8V-CE9Ek3QyS945AxJcTryTk8cuITRjopnSp5hybVu8-fLGVNDmIYECPo7oGXjW_A6gxR4Tg1fniw1ro2-mEfyimQhGmyKyjefk6NQ5bsF6srwRlhUpVZA4SeBA7ZWmwiKFZlgIH_wj_Z5KjSFAgjRsTvffk7HL3RYbWIWD9TVGsNANQKs65ROyvJU_VWcYRj1T2AFcOihZbcJONLb7u3]--></g></svg>