<svg xmlns="http://www.w3.org/2000/svg" xmlns:xlink="http://www.w3.org/1999/xlink" contentStyleType="text/css" data-diagram-type="CLASS" height="402px" preserveAspectRatio="none" style="width:849px;height:402px;background:#FFFFFF;" version="1.1" viewBox="0 0 849 402" width="849px" zoomAndPan="magnify"><defs/><g><!--class cpuid_native--><g class="entity" data-entity="cpuid_native" data-source-line="1" data-uid="ent0002" id="entity_cpuid_native"><rect fill="#F1F1F1" height="80.5938" rx="2.5" ry="2.5" style="stroke:#181818;stroke-width:0.5;" width="462.8096" x="76.14" y="213.48"/><ellipse cx="258.8133" cy="229.48" fill="#ADD1B2" rx="11" ry="11" style="stroke:#181818;stroke-width:1;"/><path d="M261.7821,235.1206 Q261.204,235.4175 260.5633,235.5581 Q259.9227,235.7144 259.2196,235.7144 Q256.7196,235.7144 255.3915,234.0737 Q254.079,232.4175 254.079,229.2925 Q254.079,226.1675 255.3915,224.5112 Q256.7196,222.855 259.2196,222.855 Q259.9227,222.855 260.5633,223.0112 Q261.2196,223.1675 261.7821,223.4644 L261.7821,226.1831 Q261.1571,225.605 260.5633,225.3394 Q259.9696,225.0581 259.3446,225.0581 Q258.0008,225.0581 257.3133,226.1362 Q256.6258,227.1987 256.6258,229.2925 Q256.6258,231.3862 257.3133,232.4644 Q258.0008,233.5269 259.3446,233.5269 Q259.9696,233.5269 260.5633,233.2612 Q261.1571,232.98 261.7821,232.4019 L261.7821,235.1206 Z " fill="#000000"/><text fill="#000000" font-family="sans-serif" font-size="14" lengthAdjust="spacing" textLength="88.9629" x="279.3133" y="234.3267">cpuid_native</text><line style="stroke:#181818;stroke-width:0.5;" x1="77.14" x2="537.9496" y1="245.48" y2="245.48"/><line style="stroke:#181818;stroke-width:0.5;" x1="77.14" x2="537.9496" y1="253.48" y2="253.48"/><ellipse cx="87.14" cy="267.1284" fill="#84BE84" rx="3" ry="3" style="stroke:#038048;stroke-width:1;"/><text fill="#000000" font-family="sans-serif" font-size="14" lengthAdjust="spacing" textLength="119.9775" x="96.14" y="270.4751">has_cpuid(): bool</text><ellipse cx="87.14" cy="283.4253" fill="#84BE84" rx="3" ry="3" style="stroke:#038048;stroke-width:1;"/><text fill="#000000" font-family="sans-serif" font-size="14" lengthAdjust="spacing" textLength="436.8096" x="96.14" y="286.772">cpuid(eax: cpuidreg, ecx: cpuidreg): std::optional&lt;cpuid_res&gt;</text></g><!--class cpuid_ctx--><g class="entity" data-entity="cpuid_ctx" data-source-line="6" data-uid="ent0003" id="entity_cpuid_ctx"><rect fill="#F1F1F1" height="64.2969" rx="2.5" ry="2.5" style="stroke:#181818;stroke-width:0.5;" width="193.1523" x="642.96" y="39.59"/><ellipse cx="701.9336" cy="55.59" fill="#ADD1B2" rx="11" ry="11" style="stroke:#181818;stroke-width:1;"/><path d="M704.9024,61.2306 Q704.3243,61.5275 703.6836,61.6681 Q703.043,61.8244 702.3399,61.8244 Q699.8399,61.8244 698.5118,60.1837 Q697.1993,58.5275 697.1993,55.4025 Q697.1993,52.2775 698.5118,50.6212 Q699.8399,48.965 702.3399,48.965 Q703.043,48.965 703.6836,49.1212 Q704.3399,49.2775 704.9024,49.5744 L704.9024,52.2931 Q704.2774,51.715 703.6836,51.4494 Q703.0899,51.1681 702.4649,51.1681 Q701.1211,51.1681 700.4336,52.2462 Q699.7461,53.3087 699.7461,55.4025 Q699.7461,57.4962 700.4336,58.5744 Q701.1211,59.6369 702.4649,59.6369 Q703.0899,59.6369 703.6836,59.3712 Q704.2774,59.09 704.9024,58.5119 L704.9024,61.2306 Z " fill="#000000"/><text fill="#000000" font-family="sans-serif" font-size="14" lengthAdjust="spacing" textLength="66.7051" x="722.4336" y="60.4367">cpuid_ctx</text><line style="stroke:#181818;stroke-width:0.5;" x1="643.96" x2="835.1123" y1="71.59" y2="71.59"/><line style="stroke:#181818;stroke-width:0.5;" x1="643.96" x2="835.1123" y1="79.59" y2="79.59"/><ellipse cx="653.96" cy="93.2384" fill="#84BE84" rx="3" ry="3" style="stroke:#038048;stroke-width:1;"/><text fill="#000000" font-family="sans-serif" font-size="14" lengthAdjust="spacing" textLength="167.1523" x="662.96" y="96.5851">core(): unsigned int = 0</text></g><!--class cpuid_native_ctx--><g class="entity" data-entity="cpuid_native_ctx" data-source-line="10" data-uid="ent0004" id="entity_cpuid_native_ctx"><rect fill="#F1F1F1" height="80.5938" rx="2.5" ry="2.5" style="stroke:#181818;stroke-width:0.5;" width="163.6143" x="615.73" y="213.48"/><ellipse cx="637.1109" cy="229.48" fill="#ADD1B2" rx="11" ry="11" style="stroke:#181818;stroke-width:1;"/><path d="M640.0796,235.1206 Q639.5015,235.4175 638.8609,235.5581 Q638.2202,235.7144 637.5171,235.7144 Q635.0171,235.7144 633.689,234.0737 Q632.3765,232.4175 632.3765,229.2925 Q632.3765,226.1675 633.689,224.5112 Q635.0171,222.855 637.5171,222.855 Q638.2202,222.855 638.8609,223.0112 Q639.5171,223.1675 640.0796,223.4644 L640.0796,226.1831 Q639.4546,225.605 638.8609,225.3394 Q638.2671,225.0581 637.6421,225.0581 Q636.2984,225.0581 635.6109,226.1362 Q634.9234,227.1987 634.9234,229.2925 Q634.9234,231.3862 635.6109,232.4644 Q636.2984,233.5269 637.6421,233.5269 Q638.2671,233.5269 638.8609,233.2612 Q639.4546,232.98 640.0796,232.4019 L640.0796,235.1206 Z " fill="#000000"/><text fill="#000000" font-family="sans-serif" font-size="14" lengthAdjust="spacing" textLength="117.4346" x="652.5288" y="234.3267">cpuid_native_ctx</text><line style="stroke:#181818;stroke-width:0.5;" x1="616.73" x2="778.3443" y1="245.48" y2="245.48"/><rect fill="none" height="6" style="stroke:#C82930;stroke-width:1;" width="6" x="623.73" y="256.1284"/><text fill="#000000" font-family="sans-serif" font-size="14" lengthAdjust="spacing" textLength="106.0801" x="635.73" y="262.4751">core_: pin_core</text><line style="stroke:#181818;stroke-width:0.5;" x1="616.73" x2="778.3443" y1="269.7769" y2="269.7769"/><ellipse cx="626.73" cy="283.4253" fill="#84BE84" rx="3" ry="3" style="stroke:#038048;stroke-width:1;"/><text fill="#000000" font-family="sans-serif" font-size="14" lengthAdjust="spacing" textLength="137.6143" x="635.73" y="286.772">core(): unsigned int</text></g><g class="entity" data-entity="GMN5" data-source-line="15" data-uid="ent0006" id="entity_GMN5"><path d="M552.51,355.07 L552.51,395.3356 A0,0 0 0 0 552.51,395.3356 L842.5745,395.3356 A0,0 0 0 0 842.5745,395.3356 L842.5745,365.07 L832.5745,355.07 L701.54,355.07 L697.54,294.55 L693.54,355.07 L552.51,355.07 A0,0 0 0 0 552.51,355.07" fill="#FEFFDD" style="stroke:#181818;stroke-width:0.5;"/><path d="M832.5745,355.07 L832.5745,365.07 L842.5745,365.07 L832.5745,355.07" fill="#FEFFDD" style="stroke:#181818;stroke-width:0.5;"/><text fill="#000000" font-family="sans-serif" font-size="13" lengthAdjust="spacing" textLength="269.0645" x="558.51" y="372.1369">Doesn't need a reference to cpuid_native</text><text fill="#000000" font-family="sans-serif" font-size="13" lengthAdjust="spacing" textLength="248.4409" x="558.51" y="387.2697">because it runs on the current thread.</text></g><!--class cpuidreader_native--><g class="entity" data-entity="cpuidreader_native" data-source-line="21" data-uid="ent0009" id="entity_cpuidreader_native"><rect fill="#F1F1F1" height="129.4844" rx="2.5" ry="2.5" style="stroke:#181818;stroke-width:0.5;" width="601.0801" x="7" y="7"/><ellipse cx="235.7065" cy="23" fill="#ADD1B2" rx="11" ry="11" style="stroke:#181818;stroke-width:1;"/><path d="M238.6753,28.6406 Q238.0972,28.9375 237.4565,29.0781 Q236.8159,29.2344 236.1128,29.2344 Q233.6128,29.2344 232.2847,27.5938 Q230.9722,25.9375 230.9722,22.8125 Q230.9722,19.6875 232.2847,18.0313 Q233.6128,16.375 236.1128,16.375 Q236.8159,16.375 237.4565,16.5313 Q238.1128,16.6875 238.6753,16.9844 L238.6753,19.7031 Q238.0503,19.125 237.4565,18.8594 Q236.8628,18.5781 236.2378,18.5781 Q234.894,18.5781 234.2065,19.6563 Q233.519,20.7188 233.519,22.8125 Q233.519,24.9063 234.2065,25.9844 Q234.894,27.0469 236.2378,27.0469 Q236.8628,27.0469 237.4565,26.7813 Q238.0503,26.5 238.6753,25.9219 L238.6753,28.6406 Z " fill="#000000"/><text fill="#000000" font-family="sans-serif" font-size="14" lengthAdjust="spacing" textLength="135.167" x="256.2065" y="27.8467">cpuidreader_native</text><line style="stroke:#181818;stroke-width:0.5;" x1="8" x2="607.0801" y1="39" y2="39"/><line style="stroke:#181818;stroke-width:0.5;" x1="8" x2="607.0801" y1="47" y2="47"/><ellipse cx="18" cy="60.6484" fill="#84BE84" rx="3" ry="3" style="stroke:#038048;stroke-width:1;"/><text fill="#000000" font-family="sans-serif" font-size="14" lengthAdjust="spacing" textLength="119.9775" x="27" y="63.9951">has_cpuid(): bool</text><ellipse cx="18" cy="76.9453" fill="#84BE84" rx="3" ry="3" style="stroke:#038048;stroke-width:1;"/><text fill="#000000" font-family="sans-serif" font-size="14" lengthAdjust="spacing" textLength="110.8857" x="27" y="80.292">is_online(): bool</text><ellipse cx="18" cy="93.2422" fill="#84BE84" rx="3" ry="3" style="stroke:#038048;stroke-width:1;"/><text fill="#000000" font-family="sans-serif" font-size="14" lengthAdjust="spacing" textLength="144.9082" x="27" y="96.5889">cores(): unsigned int</text><ellipse cx="18" cy="109.5391" fill="#84BE84" rx="3" ry="3" style="stroke:#038048;stroke-width:1;"/><text fill="#000000" font-family="sans-serif" font-size="14" lengthAdjust="spacing" textLength="436.8096" x="27" y="112.8857">cpuid(eax: cpuidreg, ecx: cpuidreg): std::optional&lt;cpuid_res&gt;</text><ellipse cx="18" cy="125.8359" fill="#84BE84" rx="3" ry="3" style="stroke:#038048;stroke-width:1;"/><text fill="#000000" font-family="sans-serif" font-size="14" lengthAdjust="spacing" textLength="575.0801" x="27" y="129.1826">enable_core(core: unsigned int): std::expected&lt;std::unique_ptr&lt;cpuid_ctx&gt;, int&gt;</text></g><!--reverse link cpuid_ctx to cpuid_native_ctx--><g class="link" data-entity-1="cpuid_ctx" data-entity-2="cpuid_native_ctx" data-source-line="19" data-uid="lnk8" id="link_cpuid_ctx_cpuid_native_ctx"><path codeLine="19" d="M728.1324,121.6297 C721.0624,151.9497 714.41,180.48 706.75,213.29" fill="none" id="cpuid_ctx-backto-cpuid_native_ctx" style="stroke:#181818;stroke-width:1;"/><polygon fill="none" points="732.22,104.1,722.2892,120.2672,733.9757,122.9923,732.22,104.1" style="stroke:#181818;stroke-width:1;"/></g><!--reverse link cpuidreader_native to cpuid_native--><g class="link" data-entity-1="cpuidreader_native" data-entity-2="cpuid_native" data-source-line="29" data-uid="lnk10" id="link_cpuidreader_native_cpuid_native"><path codeLine="29" d="M307.54,148.97 C307.54,174.42 307.54,190.87 307.54,213.21" fill="none" id="cpuidreader_native-backto-cpuid_native" style="stroke:#181818;stroke-width:1;"/><polygon fill="#181818" points="307.54,136.97,303.54,142.97,307.54,148.97,311.54,142.97,307.54,136.97" style="stroke:#181818;stroke-width:1;"/></g><!--link cpuidreader_native to cpuid_native_ctx--><g class="link" data-entity-1="cpuidreader_native" data-entity-2="cpuid_native_ctx" data-source-line="30" data-uid="lnk11" id="link_cpuidreader_native_cpuid_native_ctx"><path codeLine="30" d="M446.69,136.97 C503.13,163.03 560.9324,189.7152 609.8024,212.2752" fill="none" id="cpuidreader_native-to-cpuid_native_ctx" style="stroke:#181818;stroke-width:1;"/><polygon fill="#181818" points="615.25,214.79,608.7552,207.3861,610.7104,212.6944,605.4021,214.6495,615.25,214.79" style="stroke:#181818;stroke-width:1;"/><text fill="#000000" font-family="sans-serif" font-size="13" lengthAdjust="spacing" textLength="62.9434" x="538.47" y="179.5469">&#171;returns&#187;</text></g><!--SRC=[fLBBJiCm4BpdA_P6WHPnZa9E_8Vbs4DhAQnJUuqY0V-ExQXLNn98-61vrpCxdbsRKST8PahEAjRYFa2V3UNrkDDHrVpglgN1-t59BodekLrO0TirmPo46Hx5jgsVn7dMOxTK3uXzyzqqvaJHo7oGCpwWA2MERikmv5ZeXPulASiZVsFMcqsvKIrDZbKvvbBi1TcCY7-la5UFo7T2ZCpJ5F2603OWyMTw5Jp0w1H1JYXaCV9CiWEP5397yZb0swS6RAdev7SVJNPV6xkvSd3ch90H_ZO45vNdqJ4kPfDDnfkj-EVOQWcm7aRKJgxATYvpe6EUO0Isgr5YjqzGauJks8n-NV3BNxWs_d3Pg5kWZEcl_qDBNHSWAN3i-ny0]--></g></svg>