<svg xmlns="http://www.w3.org/2000/svg" xmlns:xlink="http://www.w3.org/1999/xlink" contentStyleType="text/css" data-diagram-type="CLASS" height="748px" preserveAspectRatio="none" style="width:756px;height:748px;background:#FFFFFF;" version="1.1" viewBox="0 0 756 748" width="756px" zoomAndPan="magnify"><defs/><g><!--cluster detail--><g class="cluster" data-entity="detail" data-source-line="3" data-uid="ent0002" id="cluster_detail"><path d="M85.76,367.87 L132.0139,367.87 A3.75,3.75 0 0 1 134.5139,370.37 L141.5139,390.1669 L545.76,390.1669 A2.5,2.5 0 0 1 548.26,392.6669 L548.26,611.05 A2.5,2.5 0 0 1 545.76,613.55 L85.76,613.55 A2.5,2.5 0 0 1 83.26,611.05 L83.26,370.37 A2.5,2.5 0 0 1 85.76,367.87" fill="none" style="stroke:#000000;stroke-width:1.5;"/><line style="stroke:#000000;stroke-width:1.5;" x1="83.26" x2="141.5139" y1="390.1669" y2="390.1669"/><text fill="#000000" font-family="sans-serif" font-size="14" font-weight="bold" lengthAdjust="spacing" textLength="45.2539" x="87.26" y="382.8651">detail</text></g><!--class cpuid_dev_file--><g class="entity" data-entity="cpuid_dev_file" data-source-line="5" data-uid="ent0003" id="entity_cpuid_dev_file"><rect fill="#F1F1F1" height="194.6719" rx="2.5" ry="2.5" style="stroke:#181818;stroke-width:0.5;" width="166.2598" x="366.13" y="402.87"/><ellipse cx="396.844" cy="418.87" fill="#ADD1B2" rx="11" ry="11" style="stroke:#181818;stroke-width:1;"/><path d="M399.8127,424.5106 Q399.2346,424.8075 398.594,424.9481 Q397.9533,425.1044 397.2502,425.1044 Q394.7502,425.1044 393.4221,423.4638 Q392.1096,421.8075 392.1096,418.6825 Q392.1096,415.5575 393.4221,413.9013 Q394.7502,412.245 397.2502,412.245 Q397.9533,412.245 398.594,412.4013 Q399.2502,412.5575 399.8127,412.8544 L399.8127,415.5731 Q399.1877,414.995 398.594,414.7294 Q398.0002,414.4481 397.3752,414.4481 Q396.0315,414.4481 395.344,415.5263 Q394.6565,416.5888 394.6565,418.6825 Q394.6565,420.7763 395.344,421.8544 Q396.0315,422.9169 397.3752,422.9169 Q398.0002,422.9169 398.594,422.6513 Q399.1877,422.37 399.8127,421.7919 L399.8127,424.5106 Z " fill="#000000"/><text fill="#000000" font-family="sans-serif" font-size="14" lengthAdjust="spacing" textLength="99.3398" x="414.336" y="423.7167">cpuid_dev_file</text><line style="stroke:#181818;stroke-width:0.5;" x1="367.13" x2="531.3898" y1="434.87" y2="434.87"/><rect fill="none" height="6" style="stroke:#C82930;stroke-width:1;" width="6" x="374.13" y="445.5184"/><text fill="#000000" font-family="sans-serif" font-size="14" lengthAdjust="spacing" textLength="48.2344" x="386.13" y="451.8651">fd_: int</text><rect fill="none" height="6" style="stroke:#C82930;stroke-width:1;" width="6" x="374.13" y="461.8153"/><text fill="#000000" font-family="sans-serif" font-size="14" lengthAdjust="spacing" textLength="133.6904" x="386.13" y="468.162">core_: unsigned int</text><rect fill="none" height="6" style="stroke:#C82930;stroke-width:1;" width="6" x="374.13" y="478.1122"/><text fill="#000000" font-family="sans-serif" font-size="14" lengthAdjust="spacing" textLength="68.8652" x="386.13" y="484.4589">error_: int</text><rect fill="none" height="6" style="stroke:#C82930;stroke-width:1;" width="6" x="374.13" y="494.4091"/><text fill="#000000" font-family="sans-serif" font-size="14" lengthAdjust="spacing" textLength="125.4189" x="386.13" y="500.7557">cpuid_: cpuid_dev</text><line style="stroke:#181818;stroke-width:0.5;" x1="367.13" x2="531.3898" y1="508.0575" y2="508.0575"/><ellipse cx="377.13" cy="521.7059" fill="#84BE84" rx="3" ry="3" style="stroke:#038048;stroke-width:1;"/><text fill="#000000" font-family="sans-serif" font-size="14" lengthAdjust="spacing" textLength="40.8311" x="386.13" y="525.0526">bool()</text><ellipse cx="377.13" cy="538.0028" fill="#84BE84" rx="3" ry="3" style="stroke:#038048;stroke-width:1;"/><text fill="#000000" font-family="sans-serif" font-size="14" lengthAdjust="spacing" textLength="137.6143" x="386.13" y="541.3495">core(): unsigned int</text><ellipse cx="377.13" cy="554.2997" fill="#84BE84" rx="3" ry="3" style="stroke:#038048;stroke-width:1;"/><text fill="#000000" font-family="sans-serif" font-size="14" lengthAdjust="spacing" textLength="72.7891" x="386.13" y="557.6464">error(): int</text><ellipse cx="377.13" cy="570.5966" fill="#84BE84" rx="3" ry="3" style="stroke:#038048;stroke-width:1;"/><text fill="#000000" font-family="sans-serif" font-size="14" lengthAdjust="spacing" textLength="140.2598" x="386.13" y="573.9432">cpuid(): cpuid_dev&amp;</text><ellipse cx="377.13" cy="586.8934" fill="#84BE84" rx="3" ry="3" style="stroke:#038048;stroke-width:1;"/><text fill="#000000" font-family="sans-serif" font-size="14" lengthAdjust="spacing" textLength="86.0576" x="386.13" y="590.2401">close(): bool</text></g><!--class cpuid_basic_ctx--><g class="entity" data-entity="cpuid_basic_ctx" data-source-line="17" data-uid="ent0004" id="entity_cpuid_basic_ctx"><rect fill="#F1F1F1" height="80.5938" rx="2.5" ry="2.5" style="stroke:#181818;stroke-width:0.5;" width="231.2002" x="99.66" y="459.91"/><ellipse cx="114.66" cy="475.91" fill="#ADD1B2" rx="11" ry="11" style="stroke:#181818;stroke-width:1;"/><path d="M117.6288,481.5506 Q117.0506,481.8475 116.41,481.9881 Q115.7694,482.1444 115.0663,482.1444 Q112.5663,482.1444 111.2381,480.5037 Q109.9256,478.8475 109.9256,475.7225 Q109.9256,472.5975 111.2381,470.9412 Q112.5663,469.285 115.0663,469.285 Q115.7694,469.285 116.41,469.4412 Q117.0663,469.5975 117.6288,469.8944 L117.6288,472.6131 Q117.0038,472.035 116.41,471.7694 Q115.8163,471.4881 115.1913,471.4881 Q113.8475,471.4881 113.16,472.5662 Q112.4725,473.6287 112.4725,475.7225 Q112.4725,477.8162 113.16,478.8944 Q113.8475,479.9569 115.1913,479.9569 Q115.8163,479.9569 116.41,479.6912 Q117.0038,479.41 117.6288,478.8319 L117.6288,481.5506 Z " fill="#000000"/><text fill="#000000" font-family="sans-serif" font-size="14" lengthAdjust="spacing" textLength="110.0518" x="128.66" y="480.7567">cpuid_basic_ctx</text><rect fill="#FFFFFF" height="15.9688" style="stroke:#181818;stroke-width:1;stroke-dasharray:2,2;" width="87.1484" x="246.7118" y="456.91"/><text fill="#000000" font-family="sans-serif" font-size="12" font-style="italic" lengthAdjust="spacing" textLength="85.1484" x="247.7118" y="469.0487">cpuid_dev_file</text><line style="stroke:#181818;stroke-width:0.5;" x1="100.66" x2="329.8602" y1="491.91" y2="491.91"/><line style="stroke:#181818;stroke-width:0.5;" x1="100.66" x2="329.8602" y1="499.91" y2="499.91"/><ellipse cx="110.66" cy="513.5584" fill="#84BE84" rx="3" ry="3" style="stroke:#038048;stroke-width:1;"/><text fill="#000000" font-family="sans-serif" font-size="14" lengthAdjust="spacing" textLength="137.6143" x="119.66" y="516.9051">core(): unsigned int</text><ellipse cx="110.66" cy="529.8553" fill="#84BE84" rx="3" ry="3" style="stroke:#038048;stroke-width:1;"/><text fill="#000000" font-family="sans-serif" font-size="14" lengthAdjust="spacing" textLength="72.7891" x="119.66" y="533.202">error(): int</text></g><!--class cpuid_dev--><g class="entity" data-entity="cpuid_dev" data-source-line="24" data-uid="ent0005" id="entity_cpuid_dev"><rect fill="#F1F1F1" height="80.5938" rx="2.5" ry="2.5" style="stroke:#181818;stroke-width:0.5;" width="462.8096" x="217.86" y="660.55"/><ellipse cx="409.5055" cy="676.55" fill="#ADD1B2" rx="11" ry="11" style="stroke:#181818;stroke-width:1;"/><path d="M412.4743,682.1906 Q411.8961,682.4875 411.2555,682.6281 Q410.6149,682.7844 409.9118,682.7844 Q407.4118,682.7844 406.0836,681.1438 Q404.7711,679.4875 404.7711,676.3625 Q404.7711,673.2375 406.0836,671.5813 Q407.4118,669.925 409.9118,669.925 Q410.6149,669.925 411.2555,670.0813 Q411.9118,670.2375 412.4743,670.5344 L412.4743,673.2531 Q411.8493,672.675 411.2555,672.4094 Q410.6618,672.1281 410.0368,672.1281 Q408.693,672.1281 408.0055,673.2063 Q407.318,674.2688 407.318,676.3625 Q407.318,678.4563 408.0055,679.5344 Q408.693,680.5969 410.0368,680.5969 Q410.6618,680.5969 411.2555,680.3313 Q411.8493,680.05 412.4743,679.4719 L412.4743,682.1906 Z " fill="#000000"/><text fill="#000000" font-family="sans-serif" font-size="14" lengthAdjust="spacing" textLength="71.0186" x="430.0055" y="681.3967">cpuid_dev</text><line style="stroke:#181818;stroke-width:0.5;" x1="218.86" x2="679.6696" y1="692.55" y2="692.55"/><line style="stroke:#181818;stroke-width:0.5;" x1="218.86" x2="679.6696" y1="700.55" y2="700.55"/><ellipse cx="228.86" cy="714.1984" fill="#84BE84" rx="3" ry="3" style="stroke:#038048;stroke-width:1;"/><text fill="#000000" font-family="sans-serif" font-size="14" lengthAdjust="spacing" textLength="119.9775" x="237.86" y="717.5451">has_cpuid(): bool</text><ellipse cx="228.86" cy="730.4953" fill="#84BE84" rx="3" ry="3" style="stroke:#038048;stroke-width:1;"/><text fill="#000000" font-family="sans-serif" font-size="14" lengthAdjust="spacing" textLength="436.8096" x="237.86" y="733.842">cpuid(eax: cpuidreg, ecx: cpuidreg): std::optional&lt;cpuid_res&gt;</text></g><!--class cpuidreader_dev--><g class="entity" data-entity="cpuidreader_dev" data-source-line="29" data-uid="ent0006" id="entity_cpuidreader_dev"><rect fill="#F1F1F1" height="162.0781" rx="2.5" ry="2.5" style="stroke:#181818;stroke-width:0.5;" width="601.0801" x="148.72" y="142.8"/><ellipse cx="386.3987" cy="158.8" fill="#ADD1B2" rx="11" ry="11" style="stroke:#181818;stroke-width:1;"/><path d="M389.3675,164.4406 Q388.7893,164.7375 388.1487,164.8781 Q387.5081,165.0344 386.805,165.0344 Q384.305,165.0344 382.9768,163.3937 Q381.6643,161.7375 381.6643,158.6125 Q381.6643,155.4875 382.9768,153.8312 Q384.305,152.175 386.805,152.175 Q387.5081,152.175 388.1487,152.3312 Q388.805,152.4875 389.3675,152.7844 L389.3675,155.5031 Q388.7425,154.925 388.1487,154.6594 Q387.555,154.3781 386.93,154.3781 Q385.5862,154.3781 384.8987,155.4562 Q384.2112,156.5187 384.2112,158.6125 Q384.2112,160.7062 384.8987,161.7844 Q385.5862,162.8469 386.93,162.8469 Q387.555,162.8469 388.1487,162.5812 Q388.7425,162.3 389.3675,161.7219 L389.3675,164.4406 Z " fill="#000000"/><text fill="#000000" font-family="sans-serif" font-size="14" lengthAdjust="spacing" textLength="117.2227" x="406.8987" y="163.6467">cpuidreader_dev</text><line style="stroke:#181818;stroke-width:0.5;" x1="149.72" x2="748.8001" y1="174.8" y2="174.8"/><rect fill="none" height="6" style="stroke:#C82930;stroke-width:1;" width="6" x="156.72" y="185.4484"/><text fill="#000000" font-family="sans-serif" font-size="14" lengthAdjust="spacing" textLength="95.334" x="168.72" y="191.7951">default_: bool</text><rect fill="none" height="6" style="stroke:#C82930;stroke-width:1;" width="6" x="156.72" y="201.7453"/><text fill="#000000" font-family="sans-serif" font-size="14" lengthAdjust="spacing" textLength="329.4375" x="168.72" y="208.092">cpuid_file_: shared_ptr&lt;detail::cpuid_dev_file&gt;</text><line style="stroke:#181818;stroke-width:0.5;" x1="149.72" x2="748.8001" y1="215.3937" y2="215.3937"/><ellipse cx="159.72" cy="229.0422" fill="#84BE84" rx="3" ry="3" style="stroke:#038048;stroke-width:1;"/><text fill="#000000" font-family="sans-serif" font-size="14" lengthAdjust="spacing" textLength="119.9775" x="168.72" y="232.3889">has_cpuid(): bool</text><ellipse cx="159.72" cy="245.3391" fill="#84BE84" rx="3" ry="3" style="stroke:#038048;stroke-width:1;"/><text fill="#000000" font-family="sans-serif" font-size="14" lengthAdjust="spacing" textLength="110.8857" x="168.72" y="248.6857">is_online(): bool</text><ellipse cx="159.72" cy="261.6359" fill="#84BE84" rx="3" ry="3" style="stroke:#038048;stroke-width:1;"/><text fill="#000000" font-family="sans-serif" font-size="14" lengthAdjust="spacing" textLength="144.9082" x="168.72" y="264.9826">cores(): unsigned int</text><ellipse cx="159.72" cy="277.9328" fill="#84BE84" rx="3" ry="3" style="stroke:#038048;stroke-width:1;"/><text fill="#000000" font-family="sans-serif" font-size="14" lengthAdjust="spacing" textLength="436.8096" x="168.72" y="281.2795">cpuid(eax: cpuidreg, ecx: cpuidreg): std::optional&lt;cpuid_res&gt;</text><ellipse cx="159.72" cy="294.2297" fill="#84BE84" rx="3" ry="3" style="stroke:#038048;stroke-width:1;"/><text fill="#000000" font-family="sans-serif" font-size="14" lengthAdjust="spacing" textLength="575.0801" x="168.72" y="297.5764">enable_core(core: unsigned int): std::expected&lt;std::unique_ptr&lt;cpuid_ctx&gt;, int&gt;</text></g><!--entity User--><g class="entity" data-entity="User" data-source-line="45" data-uid="ent0011" id="entity_User"><ellipse cx="37.2651" cy="14" fill="#F1F1F1" rx="8" ry="8" style="stroke:#181818;stroke-width:0.5;"/><path d="M37.2651,22 L37.2651,49 M24.2651,30 L50.2651,30 M37.2651,49 L24.2651,64 M37.2651,49 L50.2651,64" fill="none" style="stroke:#181818;stroke-width:0.5;"/><text fill="#000000" font-family="sans-serif" font-size="14" lengthAdjust="spacing" textLength="31.9102" x="21.31" y="78.4951">User</text></g><!--reverse link cpuid_dev_file to cpuid_dev--><g class="link" data-entity-1="cpuid_dev_file" data-entity-2="cpuid_dev" data-source-line="39" data-uid="lnk7" id="link_cpuid_dev_file_cpuid_dev"><path codeLine="39" d="M449.26,609.91 C449.26,632.01 449.26,642.28 449.26,660.35" fill="none" id="cpuid_dev_file-backto-cpuid_dev" style="stroke:#181818;stroke-width:1;"/><polygon fill="#181818" points="449.26,597.91,445.26,603.91,449.26,609.91,453.26,603.91,449.26,597.91" style="stroke:#181818;stroke-width:1;"/></g><!--link cpuidreader_dev to cpuid_basic_ctx--><g class="link" data-entity-1="cpuidreader_dev" data-entity-2="cpuid_basic_ctx" data-source-line="40" data-uid="lnk8" id="link_cpuidreader_dev_cpuid_basic_ctx"><path codeLine="40" d="M380.63,305.3 C337.35,356.06 287.223,414.8245 252.953,455.0145" fill="none" id="cpuidreader_dev-to-cpuid_basic_ctx" style="stroke:#181818;stroke-width:1;stroke-dasharray:7,7;"/><polygon fill="#181818" points="249.06,459.58,257.9433,455.327,252.3042,455.7754,251.8559,450.1363,249.06,459.58" style="stroke:#181818;stroke-width:1;"/><text fill="#000000" font-family="sans-serif" font-size="13" lengthAdjust="spacing" textLength="57.459" x="354.22" y="347.9369">&#171;create&#187;</text></g><!--reverse link cpuidreader_dev to cpuid_dev_file--><g class="link" data-entity-1="cpuidreader_dev" data-entity-2="cpuid_dev_file" data-source-line="41" data-uid="lnk9" id="link_cpuidreader_dev_cpuid_dev_file"><path codeLine="41" d="M449.26,317.3 C449.26,347.82 449.26,370.88 449.26,402.73" fill="none" id="cpuidreader_dev-backto-cpuid_dev_file" style="stroke:#181818;stroke-width:1;"/><polygon fill="#181818" points="449.26,305.3,445.26,311.3,449.26,317.3,453.26,311.3,449.26,305.3" style="stroke:#181818;stroke-width:1;"/></g><!--link cpuid_dev_file to cpuid_basic_ctx--><g class="link" data-entity-1="cpuid_dev_file" data-entity-2="cpuid_basic_ctx" data-source-line="43" data-uid="lnk10" id="link_cpuid_dev_file_cpuid_basic_ctx"><path codeLine="43" d="M365.89,500.21 C354.38,500.21 354.86,500.21 343.35,500.21" fill="none" id="cpuid_dev_file-to-cpuid_basic_ctx" style="stroke:#181818;stroke-width:1;"/><polygon fill="none" points="331.35,500.21,337.35,504.21,343.35,500.21,337.35,496.21,331.35,500.21" style="stroke:#181818;stroke-width:1;"/></g><!--reverse link User to cpuidreader_dev--><g class="link" data-entity-1="User" data-entity-2="cpuidreader_dev" data-source-line="47" data-uid="lnk12" id="link_User_cpuidreader_dev"><path codeLine="47" d="M64.6838,56.5041 C100.5638,72.0241 178.57,105.76 263.09,142.32" fill="none" id="User-backto-cpuidreader_dev" style="stroke:#181818;stroke-width:1;"/><polygon fill="#181818" points="53.67,51.74,57.5889,57.7933,64.6838,56.5041,60.7649,50.4508,53.67,51.74" style="stroke:#181818;stroke-width:1;"/></g><!--reverse link User to cpuid_basic_ctx--><g class="link" data-entity-1="User" data-entity-2="cpuid_basic_ctx" data-source-line="48" data-uid="lnk13" id="link_User_cpuid_basic_ctx"><path codeLine="48" d="M26.2301,93.7616 C15.9401,145.7516 6,230.21 35.26,304.87 C60.35,368.88 117.52,424.41 160.75,459.53" fill="none" id="User-backto-cpuid_basic_ctx" style="stroke:#181818;stroke-width:1;"/><polygon fill="none" points="28.56,81.99,23.4712,87.0992,26.2301,93.7616,31.3189,88.6524,28.56,81.99" style="stroke:#181818;stroke-width:1;"/><text fill="#000000" font-family="sans-serif" font-size="13" lengthAdjust="spacing" textLength="94.9165" x="36.26" y="228.4069">&#171;enable_core&#187;</text></g><!--SRC=[fPFHQiCW58RlVGglHhlMFa08liMknUffArZDr7I1iNUVcYmnPeEDIGXuZlxVER_AjRPlTpKeSqN8y3luZWl04W9N6hyZXECGcdkFHTShoIGys4LfY3ayZSFPMhtRBtDX7Ups3UwDLrS34YiJbYmuPrrAhw9PFKLdp5EHrDPdnKIQm-GYsLg593Bx0KmoUBCZumfiJdri6pzphmGJOMZNHj3IYJzs7Z7ng-oTz0utxjdiojpuP1JmOQhPmVM8GHJJkDm7sJIs2yeQhgU27NXQuHnm2UuNKEMPDLePg6g9xVfl-_rdcQDTXfyriEnf-gqnNzjXw404a6sUzKQzzi2wu2QvU63qcDQFeaJ2XVSwiAADwGwamunXV-CEP5OONq7JL0UUJLm_XcSYIN65QdDFyaJhQuGRtBOYBWf0wMR7MZ13Db3YYArL4U8YM8TVF3Y4qh-GMlJ7Z2KBPLrNOJsbdm00]--></g></svg>