<svg xmlns="http://www.w3.org/2000/svg" xmlns:xlink="http://www.w3.org/1999/xlink" contentStyleType="text/css" data-diagram-type="CLASS" height="748px" preserveAspectRatio="none" style="width:803px;height:748px;background:#FFFFFF;" version="1.1" viewBox="0 0 803 748" width="803px" zoomAndPan="magnify"><defs/><g><!--cluster detail--><g class="cluster" data-entity="detail" data-source-line="3" data-uid="ent0002" id="cluster_detail"><path d="M8.5,367.87 L54.7539,367.87 A3.75,3.75 0 0 1 57.2539,370.37 L64.2539,390.1669 L592.5,390.1669 A2.5,2.5 0 0 1 595,392.6669 L595,611.05 A2.5,2.5 0 0 1 592.5,613.55 L8.5,613.55 A2.5,2.5 0 0 1 6,611.05 L6,370.37 A2.5,2.5 0 0 1 8.5,367.87" fill="none" style="stroke:#000000;stroke-width:1.5;"/><line style="stroke:#000000;stroke-width:1.5;" x1="6" x2="64.2539" y1="390.1669" y2="390.1669"/><text fill="#000000" font-family="sans-serif" font-size="14" font-weight="bold" lengthAdjust="spacing" textLength="45.2539" x="10" y="382.8651">detail</text></g><!--class cpuid_dev_file--><g class="entity" data-entity="cpuid_dev_file" data-source-line="5" data-uid="ent0003" id="entity_cpuid_dev_file"><rect fill="#F1F1F1" height="194.6719" rx="2.5" ry="2.5" style="stroke:#181818;stroke-width:0.5;" width="166.2598" x="412.87" y="402.87"/><ellipse cx="443.584" cy="418.87" fill="#ADD1B2" rx="11" ry="11" style="stroke:#181818;stroke-width:1;"/><path d="M446.5527,424.5106 Q445.9746,424.8075 445.334,424.9481 Q444.6933,425.1044 443.9902,425.1044 Q441.4902,425.1044 440.1621,423.4638 Q438.8496,421.8075 438.8496,418.6825 Q438.8496,415.5575 440.1621,413.9013 Q441.4902,412.245 443.9902,412.245 Q444.6933,412.245 445.334,412.4013 Q445.9902,412.5575 446.5527,412.8544 L446.5527,415.5731 Q445.9277,414.995 445.334,414.7294 Q444.7402,414.4481 444.1152,414.4481 Q442.7715,414.4481 442.084,415.5263 Q441.3965,416.5888 441.3965,418.6825 Q441.3965,420.7763 442.084,421.8544 Q442.7715,422.9169 444.1152,422.9169 Q444.7402,422.9169 445.334,422.6513 Q445.9277,422.37 446.5527,421.7919 L446.5527,424.5106 Z " fill="#000000"/><text fill="#000000" font-family="sans-serif" font-size="14" lengthAdjust="spacing" textLength="99.3398" x="461.076" y="423.7167">cpuid_dev_file</text><line style="stroke:#181818;stroke-width:0.5;" x1="413.87" x2="578.1298" y1="434.87" y2="434.87"/><rect fill="none" height="6" style="stroke:#C82930;stroke-width:1;" width="6" x="420.87" y="445.5184"/><text fill="#000000" font-family="sans-serif" font-size="14" lengthAdjust="spacing" textLength="48.2344" x="432.87" y="451.8651">fd_: int</text><rect fill="none" height="6" style="stroke:#C82930;stroke-width:1;" width="6" x="420.87" y="461.8153"/><text fill="#000000" font-family="sans-serif" font-size="14" lengthAdjust="spacing" textLength="133.6904" x="432.87" y="468.162">core_: unsigned int</text><rect fill="none" height="6" style="stroke:#C82930;stroke-width:1;" width="6" x="420.87" y="478.1122"/><text fill="#000000" font-family="sans-serif" font-size="14" lengthAdjust="spacing" textLength="68.8652" x="432.87" y="484.4589">error_: int</text><rect fill="none" height="6" style="stroke:#C82930;stroke-width:1;" width="6" x="420.87" y="494.4091"/><text fill="#000000" font-family="sans-serif" font-size="14" lengthAdjust="spacing" textLength="125.4189" x="432.87" y="500.7557">cpuid_: cpuid_dev</text><line style="stroke:#181818;stroke-width:0.5;" x1="413.87" x2="578.1298" y1="508.0575" y2="508.0575"/><ellipse cx="423.87" cy="521.7059" fill="#84BE84" rx="3" ry="3" style="stroke:#038048;stroke-width:1;"/><text fill="#000000" font-family="sans-serif" font-size="14" lengthAdjust="spacing" textLength="40.8311" x="432.87" y="525.0526">bool()</text><ellipse cx="423.87" cy="538.0028" fill="#84BE84" rx="3" ry="3" style="stroke:#038048;stroke-width:1;"/><text fill="#000000" font-family="sans-serif" font-size="14" lengthAdjust="spacing" textLength="137.6143" x="432.87" y="541.3495">core(): unsigned int</text><ellipse cx="423.87" cy="554.2997" fill="#84BE84" rx="3" ry="3" style="stroke:#038048;stroke-width:1;"/><text fill="#000000" font-family="sans-serif" font-size="14" lengthAdjust="spacing" textLength="72.7891" x="432.87" y="557.6464">error(): int</text><ellipse cx="423.87" cy="570.5966" fill="#84BE84" rx="3" ry="3" style="stroke:#038048;stroke-width:1;"/><text fill="#000000" font-family="sans-serif" font-size="14" lengthAdjust="spacing" textLength="140.2598" x="432.87" y="573.9432">cpuid(): cpuid_dev&amp;</text><ellipse cx="423.87" cy="586.8934" fill="#84BE84" rx="3" ry="3" style="stroke:#038048;stroke-width:1;"/><text fill="#000000" font-family="sans-serif" font-size="14" lengthAdjust="spacing" textLength="86.0576" x="432.87" y="590.2401">close(): bool</text></g><!--class cpuid_dev_ctx--><g class="entity" data-entity="cpuid_dev_ctx" data-source-line="17" data-uid="ent0004" id="entity_cpuid_dev_ctx"><rect fill="#F1F1F1" height="113.1875" rx="2.5" ry="2.5" style="stroke:#181818;stroke-width:0.5;" width="355.4375" x="22.28" y="443.62"/><ellipse cx="146.0036" cy="459.62" fill="#ADD1B2" rx="11" ry="11" style="stroke:#181818;stroke-width:1;"/><path d="M148.9724,465.2606 Q148.3943,465.5575 147.7536,465.6981 Q147.113,465.8544 146.4099,465.8544 Q143.9099,465.8544 142.5818,464.2138 Q141.2693,462.5575 141.2693,459.4325 Q141.2693,456.3075 142.5818,454.6513 Q143.9099,452.995 146.4099,452.995 Q147.113,452.995 147.7536,453.1513 Q148.4099,453.3075 148.9724,453.6044 L148.9724,456.3231 Q148.3474,455.745 147.7536,455.4794 Q147.1599,455.1981 146.5349,455.1981 Q145.1911,455.1981 144.5036,456.2763 Q143.8161,457.3388 143.8161,459.4325 Q143.8161,461.5263 144.5036,462.6044 Q145.1911,463.6669 146.5349,463.6669 Q147.1599,463.6669 147.7536,463.4013 Q148.3474,463.12 148.9724,462.5419 L148.9724,465.2606 Z " fill="#000000"/><text fill="#000000" font-family="sans-serif" font-size="14" lengthAdjust="spacing" textLength="99.4902" x="166.5036" y="464.4667">cpuid_dev_ctx</text><line style="stroke:#181818;stroke-width:0.5;" x1="23.28" x2="376.7175" y1="475.62" y2="475.62"/><rect fill="none" height="6" style="stroke:#C82930;stroke-width:1;" width="6" x="30.28" y="486.2684"/><text fill="#000000" font-family="sans-serif" font-size="14" lengthAdjust="spacing" textLength="329.4375" x="42.28" y="492.6151">cpuid_file_: shared_ptr&lt;detail::cpuid_dev_file&gt;</text><line style="stroke:#181818;stroke-width:0.5;" x1="23.28" x2="376.7175" y1="499.9169" y2="499.9169"/><ellipse cx="33.28" cy="513.5653" fill="#84BE84" rx="3" ry="3" style="stroke:#038048;stroke-width:1;"/><text fill="#000000" font-family="sans-serif" font-size="14" lengthAdjust="spacing" textLength="40.8311" x="42.28" y="516.912">bool()</text><ellipse cx="33.28" cy="529.8622" fill="#84BE84" rx="3" ry="3" style="stroke:#038048;stroke-width:1;"/><text fill="#000000" font-family="sans-serif" font-size="14" lengthAdjust="spacing" textLength="137.6143" x="42.28" y="533.2089">core(): unsigned int</text><ellipse cx="33.28" cy="546.1591" fill="#84BE84" rx="3" ry="3" style="stroke:#038048;stroke-width:1;"/><text fill="#000000" font-family="sans-serif" font-size="14" lengthAdjust="spacing" textLength="72.7891" x="42.28" y="549.5057">error(): int</text></g><!--class cpuid_dev--><g class="entity" data-entity="cpuid_dev" data-source-line="26" data-uid="ent0005" id="entity_cpuid_dev"><rect fill="#F1F1F1" height="80.5938" rx="2.5" ry="2.5" style="stroke:#181818;stroke-width:0.5;" width="462.8096" x="264.6" y="660.55"/><ellipse cx="456.2455" cy="676.55" fill="#ADD1B2" rx="11" ry="11" style="stroke:#181818;stroke-width:1;"/><path d="M459.2143,682.1906 Q458.6361,682.4875 457.9955,682.6281 Q457.3549,682.7844 456.6518,682.7844 Q454.1518,682.7844 452.8236,681.1438 Q451.5111,679.4875 451.5111,676.3625 Q451.5111,673.2375 452.8236,671.5813 Q454.1518,669.925 456.6518,669.925 Q457.3549,669.925 457.9955,670.0813 Q458.6518,670.2375 459.2143,670.5344 L459.2143,673.2531 Q458.5893,672.675 457.9955,672.4094 Q457.4018,672.1281 456.7768,672.1281 Q455.433,672.1281 454.7455,673.2063 Q454.058,674.2688 454.058,676.3625 Q454.058,678.4563 454.7455,679.5344 Q455.433,680.5969 456.7768,680.5969 Q457.4018,680.5969 457.9955,680.3313 Q458.5893,680.05 459.2143,679.4719 L459.2143,682.1906 Z " fill="#000000"/><text fill="#000000" font-family="sans-serif" font-size="14" lengthAdjust="spacing" textLength="71.0186" x="476.7455" y="681.3967">cpuid_dev</text><line style="stroke:#181818;stroke-width:0.5;" x1="265.6" x2="726.4096" y1="692.55" y2="692.55"/><line style="stroke:#181818;stroke-width:0.5;" x1="265.6" x2="726.4096" y1="700.55" y2="700.55"/><ellipse cx="275.6" cy="714.1984" fill="#84BE84" rx="3" ry="3" style="stroke:#038048;stroke-width:1;"/><text fill="#000000" font-family="sans-serif" font-size="14" lengthAdjust="spacing" textLength="119.9775" x="284.6" y="717.5451">has_cpuid(): bool</text><ellipse cx="275.6" cy="730.4953" fill="#84BE84" rx="3" ry="3" style="stroke:#038048;stroke-width:1;"/><text fill="#000000" font-family="sans-serif" font-size="14" lengthAdjust="spacing" textLength="436.8096" x="284.6" y="733.842">cpuid(eax: cpuidreg, ecx: cpuidreg): std::optional&lt;cpuid_res&gt;</text></g><!--class cpuidreader_dev--><g class="entity" data-entity="cpuidreader_dev" data-source-line="31" data-uid="ent0006" id="entity_cpuidreader_dev"><rect fill="#F1F1F1" height="162.0781" rx="2.5" ry="2.5" style="stroke:#181818;stroke-width:0.5;" width="601.0801" x="195.46" y="142.8"/><ellipse cx="433.1387" cy="158.8" fill="#ADD1B2" rx="11" ry="11" style="stroke:#181818;stroke-width:1;"/><path d="M436.1075,164.4406 Q435.5293,164.7375 434.8887,164.8781 Q434.2481,165.0344 433.545,165.0344 Q431.045,165.0344 429.7168,163.3937 Q428.4043,161.7375 428.4043,158.6125 Q428.4043,155.4875 429.7168,153.8312 Q431.045,152.175 433.545,152.175 Q434.2481,152.175 434.8887,152.3312 Q435.545,152.4875 436.1075,152.7844 L436.1075,155.5031 Q435.4825,154.925 434.8887,154.6594 Q434.295,154.3781 433.67,154.3781 Q432.3262,154.3781 431.6387,155.4562 Q430.9512,156.5187 430.9512,158.6125 Q430.9512,160.7062 431.6387,161.7844 Q432.3262,162.8469 433.67,162.8469 Q434.295,162.8469 434.8887,162.5812 Q435.4825,162.3 436.1075,161.7219 L436.1075,164.4406 Z " fill="#000000"/><text fill="#000000" font-family="sans-serif" font-size="14" lengthAdjust="spacing" textLength="117.2227" x="453.6387" y="163.6467">cpuidreader_dev</text><line style="stroke:#181818;stroke-width:0.5;" x1="196.46" x2="795.5401" y1="174.8" y2="174.8"/><rect fill="none" height="6" style="stroke:#C82930;stroke-width:1;" width="6" x="203.46" y="185.4484"/><text fill="#000000" font-family="sans-serif" font-size="14" lengthAdjust="spacing" textLength="95.334" x="215.46" y="191.7951">default_: bool</text><rect fill="none" height="6" style="stroke:#C82930;stroke-width:1;" width="6" x="203.46" y="201.7453"/><text fill="#000000" font-family="sans-serif" font-size="14" lengthAdjust="spacing" textLength="329.4375" x="215.46" y="208.092">cpuid_file_: shared_ptr&lt;detail::cpuid_dev_file&gt;</text><line style="stroke:#181818;stroke-width:0.5;" x1="196.46" x2="795.5401" y1="215.3937" y2="215.3937"/><ellipse cx="206.46" cy="229.0422" fill="#84BE84" rx="3" ry="3" style="stroke:#038048;stroke-width:1;"/><text fill="#000000" font-family="sans-serif" font-size="14" lengthAdjust="spacing" textLength="119.9775" x="215.46" y="232.3889">has_cpuid(): bool</text><ellipse cx="206.46" cy="245.3391" fill="#84BE84" rx="3" ry="3" style="stroke:#038048;stroke-width:1;"/><text fill="#000000" font-family="sans-serif" font-size="14" lengthAdjust="spacing" textLength="110.8857" x="215.46" y="248.6857">is_online(): bool</text><ellipse cx="206.46" cy="261.6359" fill="#84BE84" rx="3" ry="3" style="stroke:#038048;stroke-width:1;"/><text fill="#000000" font-family="sans-serif" font-size="14" lengthAdjust="spacing" textLength="144.9082" x="215.46" y="264.9826">cores(): unsigned int</text><ellipse cx="206.46" cy="277.9328" fill="#84BE84" rx="3" ry="3" style="stroke:#038048;stroke-width:1;"/><text fill="#000000" font-family="sans-serif" font-size="14" lengthAdjust="spacing" textLength="436.8096" x="215.46" y="281.2795">cpuid(eax: cpuidreg, ecx: cpuidreg): std::optional&lt;cpuid_res&gt;</text><ellipse cx="206.46" cy="294.2297" fill="#84BE84" rx="3" ry="3" style="stroke:#038048;stroke-width:1;"/><text fill="#000000" font-family="sans-serif" font-size="14" lengthAdjust="spacing" textLength="575.0801" x="215.46" y="297.5764">enable_core(core: unsigned int): std::expected&lt;std::unique_ptr&lt;cpuid_ctx&gt;, int&gt;</text></g><!--entity User--><g class="entity" data-entity="User" data-source-line="47" data-uid="ent0011" id="entity_User"><ellipse cx="83.9951" cy="14" fill="#F1F1F1" rx="8" ry="8" style="stroke:#181818;stroke-width:0.5;"/><path d="M83.9951,22 L83.9951,49 M70.9951,30 L96.9951,30 M83.9951,49 L70.9951,64 M83.9951,49 L96.9951,64" fill="none" style="stroke:#181818;stroke-width:0.5;"/><text fill="#000000" font-family="sans-serif" font-size="14" lengthAdjust="spacing" textLength="31.9102" x="68.04" y="78.4951">User</text></g><!--reverse link cpuid_dev_file to cpuid_dev--><g class="link" data-entity-1="cpuid_dev_file" data-entity-2="cpuid_dev" data-source-line="41" data-uid="lnk7" id="link_cpuid_dev_file_cpuid_dev"><path codeLine="41" d="M496,609.91 C496,632.01 496,642.28 496,660.35" fill="none" id="cpuid_dev_file-backto-cpuid_dev" style="stroke:#181818;stroke-width:1;"/><polygon fill="#181818" points="496,597.91,492,603.91,496,609.91,500,603.91,496,597.91" style="stroke:#181818;stroke-width:1;"/></g><!--link cpuidreader_dev to cpuid_dev_ctx--><g class="link" data-entity-1="cpuidreader_dev" data-entity-2="cpuid_dev_ctx" data-source-line="42" data-uid="lnk8" id="link_cpuidreader_dev_cpuid_dev_ctx"><path codeLine="42" d="M409.19,305.3 C361.43,349.58 307.7404,399.3412 264.9104,439.0412" fill="none" id="cpuidreader_dev-to-cpuid_dev_ctx" style="stroke:#181818;stroke-width:1;stroke-dasharray:7,7;"/><polygon fill="#181818" points="260.51,443.12,269.8298,439.9354,264.177,439.721,264.3914,434.0682,260.51,443.12" style="stroke:#181818;stroke-width:1;"/><text fill="#000000" font-family="sans-serif" font-size="13" lengthAdjust="spacing" textLength="57.459" x="375.51" y="347.9369">&#171;create&#187;</text></g><!--reverse link cpuidreader_dev to cpuid_dev_file--><g class="link" data-entity-1="cpuidreader_dev" data-entity-2="cpuid_dev_file" data-source-line="43" data-uid="lnk9" id="link_cpuidreader_dev_cpuid_dev_file"><path codeLine="43" d="M496,317.3 C496,347.82 496,370.88 496,402.73" fill="none" id="cpuidreader_dev-backto-cpuid_dev_file" style="stroke:#181818;stroke-width:1;"/><polygon fill="#181818" points="496,305.3,492,311.3,496,317.3,500,311.3,496,305.3" style="stroke:#181818;stroke-width:1;"/></g><!--link cpuid_dev_file to cpuid_dev_ctx--><g class="link" data-entity-1="cpuid_dev_file" data-entity-2="cpuid_dev_ctx" data-source-line="45" data-uid="lnk10" id="link_cpuid_dev_file_cpuid_dev_ctx"><path codeLine="45" d="M412.61,500.21 C401.1,500.21 401.58,500.21 390.06,500.21" fill="none" id="cpuid_dev_file-to-cpuid_dev_ctx" style="stroke:#181818;stroke-width:1;"/><polygon fill="none" points="378.06,500.21,384.06,504.21,390.06,500.21,384.06,496.21,378.06,500.21" style="stroke:#181818;stroke-width:1;"/></g><!--reverse link User to cpuidreader_dev--><g class="link" data-entity-1="User" data-entity-2="cpuidreader_dev" data-source-line="49" data-uid="lnk12" id="link_User_cpuidreader_dev"><path codeLine="49" d="M111.4238,56.5041 C147.3038,72.0241 225.31,105.76 309.83,142.32" fill="none" id="User-backto-cpuidreader_dev" style="stroke:#181818;stroke-width:1;"/><polygon fill="#181818" points="100.41,51.74,104.3289,57.7933,111.4238,56.5041,107.5049,50.4508,100.41,51.74" style="stroke:#181818;stroke-width:1;"/></g><!--reverse link User to cpuid_dev_ctx--><g class="link" data-entity-1="User" data-entity-2="cpuid_dev_ctx" data-source-line="50" data-uid="lnk13" id="link_User_cpuid_dev_ctx"><path codeLine="50" d="M75.536,93.9966 C67.816,145.3466 60.51,228.08 82,304.87 C96.2,355.62 127.68,406.29 154.55,443.16" fill="none" id="User-backto-cpuid_dev_ctx" style="stroke:#181818;stroke-width:1;"/><polygon fill="none" points="77.32,82.13,72.4724,87.4686,75.536,93.9966,80.3835,88.658,77.32,82.13" style="stroke:#181818;stroke-width:1;"/><text fill="#000000" font-family="sans-serif" font-size="13" lengthAdjust="spacing" textLength="94.9165" x="83" y="228.4069">&#171;enable_core&#187;</text></g><!--SRC=[hLD1RiCW4Bpp2avLqeGymBBuHS-8m2P18k02RYrL_Ni1EmxOgTIgHHRIiilCx2pcMjltgngKEIDa-1LynmLW2O4hZJyGmd49pRt7ekkLP1BUs4bfY3ayhTtHMhtPtcDX7Mos3UwDLsS34YiJxbbmphgKhaupUZgTQPwAfBO-8oQc-PYS9AjHI69ctn2JJBowaUaAsfpwVDou2CC_zptn9qUZ27_X3YJhWcl72JHDxJgzgOlVGjmaR7VXdircpdvD_W8VfbOTdFSOH176SXzaqzWkA6kuRaTe1vukw1nm2Uu7fCepQxGoiD0IVV8FZVgZpD5dmu_HpJoCjDKqj-imT202o3P7lL6lFMJZHxWuQRfFzICeaN3YlGwiQEFNeqicrl_GCv6aU7bBSm_oG1Ulhy5jAs9904fNzJLSfbXH4aTiZOaG5y4w_EB18PJs0kYEFcOigJbkcWhJAVq2]--></g></svg>