<svg xmlns="http://www.w3.org/2000/svg" xmlns:xlink="http://www.w3.org/1999/xlink" contentStyleType="text/css" data-diagram-type="CLASS" height="127px" preserveAspectRatio="none" style="width:1057px;height:127px;background:#FFFFFF;" version="1.1" viewBox="0 0 1057 127" width="1057px" zoomAndPan="magnify"><defs/><g><!--class cpuid_native--><g class="entity" data-entity="cpuid_native" data-source-line="1" data-uid="ent0002" id="entity_cpuid_native"><rect fill="#F1F1F1" height="80.5938" rx="2.5" ry="2.5" style="stroke:#181818;stroke-width:0.5;" width="462.8096" x="587.26" y="23.3"/><ellipse cx="769.9333" cy="39.3" fill="#ADD1B2" rx="11" ry="11" style="stroke:#181818;stroke-width:1;"/><path d="M772.9021,44.9406 Q772.324,45.2375 771.6833,45.3781 Q771.0427,45.5344 770.3396,45.5344 Q767.8396,45.5344 766.5115,43.8938 Q765.199,42.2375 765.199,39.1125 Q765.199,35.9875 766.5115,34.3313 Q767.8396,32.675 770.3396,32.675 Q771.0427,32.675 771.6833,32.8313 Q772.3396,32.9875 772.9021,33.2844 L772.9021,36.0031 Q772.2771,35.425 771.6833,35.1594 Q771.0896,34.8781 770.4646,34.8781 Q769.1208,34.8781 768.4333,35.9563 Q767.7458,37.0188 767.7458,39.1125 Q767.7458,41.2063 768.4333,42.2844 Q769.1208,43.3469 770.4646,43.3469 Q771.0896,43.3469 771.6833,43.0813 Q772.2771,42.8 772.9021,42.2219 L772.9021,44.9406 Z " fill="#000000"/><text fill="#000000" font-family="sans-serif" font-size="14" lengthAdjust="spacing" textLength="88.9629" x="790.4333" y="44.1467">cpuid_native</text><line style="stroke:#181818;stroke-width:0.5;" x1="588.26" x2="1049.0696" y1="55.3" y2="55.3"/><line style="stroke:#181818;stroke-width:0.5;" x1="588.26" x2="1049.0696" y1="63.3" y2="63.3"/><ellipse cx="598.26" cy="76.9484" fill="#84BE84" rx="3" ry="3" style="stroke:#038048;stroke-width:1;"/><text fill="#000000" font-family="sans-serif" font-size="14" lengthAdjust="spacing" textLength="119.9775" x="607.26" y="80.2951">has_cpuid(): bool</text><ellipse cx="598.26" cy="93.2453" fill="#84BE84" rx="3" ry="3" style="stroke:#038048;stroke-width:1;"/><text fill="#000000" font-family="sans-serif" font-size="14" lengthAdjust="spacing" textLength="436.8096" x="607.26" y="96.592">cpuid(eax: cpuidreg, ecx: cpuidreg): std::optional&lt;cpuid_res&gt;</text></g><!--class cpuidreader_native--><g class="entity" data-entity="cpuidreader_native" data-source-line="6" data-uid="ent0003" id="entity_cpuidreader_native"><rect fill="#F1F1F1" height="113.1875" rx="2.5" ry="2.5" style="stroke:#181818;stroke-width:0.5;" width="545.333" x="7" y="7"/><ellipse cx="207.833" cy="23" fill="#ADD1B2" rx="11" ry="11" style="stroke:#181818;stroke-width:1;"/><path d="M210.8018,28.6406 Q210.2236,28.9375 209.583,29.0781 Q208.9424,29.2344 208.2393,29.2344 Q205.7393,29.2344 204.4111,27.5938 Q203.0986,25.9375 203.0986,22.8125 Q203.0986,19.6875 204.4111,18.0313 Q205.7393,16.375 208.2393,16.375 Q208.9424,16.375 209.583,16.5313 Q210.2393,16.6875 210.8018,16.9844 L210.8018,19.7031 Q210.1768,19.125 209.583,18.8594 Q208.9893,18.5781 208.3643,18.5781 Q207.0205,18.5781 206.333,19.6563 Q205.6455,20.7188 205.6455,22.8125 Q205.6455,24.9063 206.333,25.9844 Q207.0205,27.0469 208.3643,27.0469 Q208.9893,27.0469 209.583,26.7813 Q210.1768,26.5 210.8018,25.9219 L210.8018,28.6406 Z " fill="#000000"/><text fill="#000000" font-family="sans-serif" font-size="14" lengthAdjust="spacing" textLength="135.167" x="228.333" y="27.8467">cpuidreader_native</text><line style="stroke:#181818;stroke-width:0.5;" x1="8" x2="551.333" y1="39" y2="39"/><line style="stroke:#181818;stroke-width:0.5;" x1="8" x2="551.333" y1="47" y2="47"/><ellipse cx="18" cy="60.6484" fill="#84BE84" rx="3" ry="3" style="stroke:#038048;stroke-width:1;"/><text fill="#000000" font-family="sans-serif" font-size="14" lengthAdjust="spacing" textLength="119.9775" x="27" y="63.9951">has_cpuid(): bool</text><ellipse cx="18" cy="76.9453" fill="#84BE84" rx="3" ry="3" style="stroke:#038048;stroke-width:1;"/><text fill="#000000" font-family="sans-serif" font-size="14" lengthAdjust="spacing" textLength="110.8857" x="27" y="80.292">is_online(): bool</text><ellipse cx="18" cy="93.2422" fill="#84BE84" rx="3" ry="3" style="stroke:#038048;stroke-width:1;"/><text fill="#000000" font-family="sans-serif" font-size="14" lengthAdjust="spacing" textLength="436.8096" x="27" y="96.5889">cpuid(eax: cpuidreg, ecx: cpuidreg): std::optional&lt;cpuid_res&gt;</text><ellipse cx="18" cy="109.5391" fill="#84BE84" rx="3" ry="3" style="stroke:#038048;stroke-width:1;"/><text fill="#000000" font-family="sans-serif" font-size="14" lengthAdjust="spacing" textLength="519.333" x="27" y="112.8857">enable_core(core: unsigned int): std::optional&lt;ubench::thread::pin_core&gt;</text></g><!--reverse link cpuidreader_native to cpuid_native--><g class="link" data-entity-1="cpuidreader_native" data-entity-2="cpuid_native" data-source-line="13" data-uid="lnk4" id="link_cpuidreader_native_cpuid_native"><path codeLine="13" d="M564.59,63.6 C576.02,63.6 575.45,63.6 586.89,63.6" fill="none" id="cpuidreader_native-backto-cpuid_native" style="stroke:#181818;stroke-width:1;"/><polygon fill="#181818" points="552.59,63.6,558.59,67.6,564.59,63.6,558.59,59.6,552.59,63.6" style="stroke:#181818;stroke-width:1;"/></g><!--SRC=[hL2x2iCm3Dpz5HxJHtv0bFwAKMoH28mSBASKIl-zYJsq9Kk7QX3eqEdkv2EgMZyl79nWuHlPXx5hdIPKL_7k07P8AJQuGOHtQAnCuzcI_nZNTIq18Cs5as2yjEkPz6gUnlYtOYOCb7_JPNL98WlzqquzGO939ETJfcvhO1TH7eM2PIax-ZAG-0cWJ9jzW9cbSbkuVQnZd_kl1xy0]--></g></svg>