<svg xmlns="http://www.w3.org/2000/svg" xmlns:xlink="http://www.w3.org/1999/xlink" contentStyleType="text/css" data-diagram-type="CLASS" height="501px" preserveAspectRatio="none" style="width:686px;height:501px;background:#FFFFFF;" version="1.1" viewBox="0 0 686 501" width="686px" zoomAndPan="magnify"><?plantuml 1.2026.3?><defs/><g><!--class json_writer--><g class="entity" data-qualified-name="json_writer" data-source-line="1" id="ent0002"><rect fill="#F1F1F1" height="145.7813" rx="2.5" ry="2.5" style="stroke:#181818;stroke-width:0.5;" width="270.1182" x="114.81" y="7"/><ellipse cx="207.331" cy="23" fill="#ADD1B2" rx="11" ry="11" style="stroke:#181818;stroke-width:1;"/><path d="M210.2997,28.6406 Q209.7216,28.9375 209.081,29.0781 Q208.4404,29.2344 207.7372,29.2344 Q205.2372,29.2344 203.9091,27.5938 Q202.5966,25.9375 202.5966,22.8125 Q202.5966,19.6875 203.9091,18.0313 Q205.2372,16.375 207.7372,16.375 Q208.4404,16.375 209.081,16.5313 Q209.7372,16.6875 210.2997,16.9844 L210.2997,19.7031 Q209.6747,19.125 209.081,18.8594 Q208.4872,18.5781 207.8622,18.5781 Q206.5185,18.5781 205.831,19.6563 Q205.1435,20.7188 205.1435,22.8125 Q205.1435,24.9063 205.831,25.9844 Q206.5185,27.0469 207.8622,27.0469 Q208.4872,27.0469 209.081,26.7813 Q209.6747,26.5 210.2997,25.9219 L210.2997,28.6406 Z " fill="#000000"/><text fill="#000000" font-family="sans-serif" font-size="14" lengthAdjust="spacing" textLength="76.5762" x="227.831" y="27.8467">json_writer</text><line style="stroke:#181818;stroke-width:0.5;" x1="115.81" x2="383.9282" y1="39" y2="39"/><g data-visibility-modifier="PUBLIC_METHOD"><ellipse cx="125.81" cy="52.6484" fill="#84BE84" rx="3" ry="3" style="stroke:#038048;stroke-width:1;"/></g><text fill="#000000" font-family="sans-serif" font-size="14" lengthAdjust="spacing" textLength="244.1182" x="134.81" y="55.9951">json_writer(file_name: string_view)</text><g data-visibility-modifier="PUBLIC_METHOD"><ellipse cx="125.81" cy="68.9453" fill="#84BE84" rx="3" ry="3" style="stroke:#038048;stroke-width:1;"/></g><text fill="#000000" font-family="sans-serif" font-size="14" lengthAdjust="spacing" textLength="214.8877" x="134.81" y="72.292">json_writer(stream: ostream&amp;)</text><g data-visibility-modifier="PUBLIC_METHOD"><ellipse cx="125.81" cy="85.2422" fill="#84BE84" rx="3" ry="3" style="stroke:#038048;stroke-width:1;"/></g><text fill="#000000" font-family="sans-serif" font-size="14" lengthAdjust="spacing" textLength="99.2305" x="134.81" y="88.5889">~json_writer()</text><line style="stroke:#181818;stroke-width:1;" x1="115.81" x2="383.9282" y1="95.8906" y2="95.8906"/><g data-visibility-modifier="PUBLIC_METHOD"><ellipse cx="125.81" cy="109.5391" fill="#84BE84" rx="3" ry="3" style="stroke:#038048;stroke-width:1;"/></g><text fill="#000000" font-family="sans-serif" font-size="14" lengthAdjust="spacing" textLength="232.1484" x="134.81" y="112.8857">write_object(): json_writer_object</text><g data-visibility-modifier="PUBLIC_METHOD"><ellipse cx="125.81" cy="125.8359" fill="#84BE84" rx="3" ry="3" style="stroke:#038048;stroke-width:1;"/></g><text fill="#000000" font-family="sans-serif" font-size="14" lengthAdjust="spacing" textLength="219.7754" x="134.81" y="129.1826">write_array(): json_writer_array</text><g data-visibility-modifier="PUBLIC_METHOD"><ellipse cx="125.81" cy="142.1328" fill="#84BE84" rx="3" ry="3" style="stroke:#038048;stroke-width:1;"/></g><text fill="#000000" font-family="sans-serif" font-size="14" lengthAdjust="spacing" textLength="46.9834" x="134.81" y="145.4795">close()</text></g><!--class json_writer_object--><g class="entity" data-qualified-name="json_writer_object" data-source-line="11" id="ent0003"><rect fill="#F1F1F1" height="194.6719" rx="2.5" ry="2.5" style="stroke:#181818;stroke-width:0.5;" width="371.748" x="7" y="291.78"/><ellipse cx="125.2651" cy="307.78" fill="#ADD1B2" rx="11" ry="11" style="stroke:#181818;stroke-width:1;"/><path d="M128.2339,313.4206 Q127.6558,313.7175 127.0151,313.8581 Q126.3745,314.0144 125.6714,314.0144 Q123.1714,314.0144 121.8433,312.3738 Q120.5308,310.7175 120.5308,307.5925 Q120.5308,304.4675 121.8433,302.8113 Q123.1714,301.155 125.6714,301.155 Q126.3745,301.155 127.0151,301.3113 Q127.6714,301.4675 128.2339,301.7644 L128.2339,304.4831 Q127.6089,303.905 127.0151,303.6394 Q126.4214,303.3581 125.7964,303.3581 Q124.4526,303.3581 123.7651,304.4363 Q123.0776,305.4988 123.0776,307.5925 Q123.0776,309.6863 123.7651,310.7644 Q124.4526,311.8269 125.7964,311.8269 Q126.4214,311.8269 127.0151,311.5613 Q127.6089,311.28 128.2339,310.7019 L128.2339,313.4206 Z " fill="#000000"/><text fill="#000000" font-family="sans-serif" font-size="14" lengthAdjust="spacing" textLength="126.7178" x="145.7651" y="312.6267">json_writer_object</text><line style="stroke:#181818;stroke-width:0.5;" x1="8" x2="377.748" y1="323.78" y2="323.78"/><g data-visibility-modifier="PUBLIC_METHOD"><ellipse cx="18" cy="337.4284" fill="#84BE84" rx="3" ry="3" style="stroke:#038048;stroke-width:1;"/></g><text fill="#000000" font-family="sans-serif" font-size="14" lengthAdjust="spacing" textLength="149.3721" x="27" y="340.7751">~json_writer_object()</text><line style="stroke:#181818;stroke-width:1;" x1="8" x2="377.748" y1="348.0769" y2="348.0769"/><g data-visibility-modifier="PUBLIC_METHOD"><ellipse cx="18" cy="361.7253" fill="#84BE84" rx="3" ry="3" style="stroke:#038048;stroke-width:1;"/></g><text fill="#000000" font-family="sans-serif" font-size="14" lengthAdjust="spacing" textLength="345.748" x="27" y="365.072">write_object(key: string_view): json_writer_object</text><g data-visibility-modifier="PUBLIC_METHOD"><ellipse cx="18" cy="378.0222" fill="#84BE84" rx="3" ry="3" style="stroke:#038048;stroke-width:1;"/></g><text fill="#000000" font-family="sans-serif" font-size="14" lengthAdjust="spacing" textLength="333.375" x="27" y="381.3689">write_array(key: string_view): json_writer_array</text><g data-visibility-modifier="PUBLIC_METHOD"><ellipse cx="18" cy="394.3191" fill="#84BE84" rx="3" ry="3" style="stroke:#038048;stroke-width:1;"/></g><text fill="#000000" font-family="sans-serif" font-size="14" lengthAdjust="spacing" textLength="340.6963" x="27" y="397.6657">write_value(key: string_view, value: string_view)</text><g data-visibility-modifier="PUBLIC_METHOD"><ellipse cx="18" cy="418.7644" fill="#84BE84" rx="3" ry="3" style="stroke:#038048;stroke-width:1;"/></g><text fill="#000000" font-family="sans-serif" font-size="14" lengthAdjust="spacing" textLength="103.1543" x="27" y="413.9626">&#171;T: is_integer&#187;</text><text fill="#000000" font-family="sans-serif" font-size="14" lengthAdjust="spacing" textLength="269.8213" x="27" y="430.2595">write_value(key: string_view, value: T)</text><g data-visibility-modifier="PUBLIC_METHOD"><ellipse cx="18" cy="443.2097" fill="#84BE84" rx="3" ry="3" style="stroke:#038048;stroke-width:1;"/></g><text fill="#000000" font-family="sans-serif" font-size="14" lengthAdjust="spacing" textLength="282.8438" x="27" y="446.5564">write_bool(key: string_view, value: bool)</text><g data-visibility-modifier="PUBLIC_METHOD"><ellipse cx="18" cy="459.5066" fill="#84BE84" rx="3" ry="3" style="stroke:#038048;stroke-width:1;"/></g><text fill="#000000" font-family="sans-serif" font-size="14" lengthAdjust="spacing" textLength="192.2471" x="27" y="462.8532">write_null(key: string_view)</text><g data-visibility-modifier="PUBLIC_METHOD"><ellipse cx="18" cy="475.8034" fill="#84BE84" rx="3" ry="3" style="stroke:#038048;stroke-width:1;"/></g><text fill="#000000" font-family="sans-serif" font-size="14" lengthAdjust="spacing" textLength="46.9834" x="27" y="479.1501">close()</text></g><!--class json_writer_array--><g class="entity" data-qualified-name="json_writer_array" data-source-line="23" id="ent0004"><rect fill="#F1F1F1" height="194.6719" rx="2.5" ry="2.5" style="stroke:#181818;stroke-width:0.5;" width="258.1484" x="413.8" y="291.78"/><ellipse cx="478.3586" cy="307.78" fill="#ADD1B2" rx="11" ry="11" style="stroke:#181818;stroke-width:1;"/><path d="M481.3273,313.4206 Q480.7492,313.7175 480.1086,313.8581 Q479.468,314.0144 478.7648,314.0144 Q476.2648,314.0144 474.9367,312.3738 Q473.6242,310.7175 473.6242,307.5925 Q473.6242,304.4675 474.9367,302.8113 Q476.2648,301.155 478.7648,301.155 Q479.468,301.155 480.1086,301.3113 Q480.7648,301.4675 481.3273,301.7644 L481.3273,304.4831 Q480.7023,303.905 480.1086,303.6394 Q479.5148,303.3581 478.8898,303.3581 Q477.5461,303.3581 476.8586,304.4363 Q476.1711,305.4988 476.1711,307.5925 Q476.1711,309.6863 476.8586,310.7644 Q477.5461,311.8269 478.8898,311.8269 Q479.5148,311.8269 480.1086,311.5613 Q480.7023,311.28 481.3273,310.7019 L481.3273,313.4206 Z " fill="#000000"/><text fill="#000000" font-family="sans-serif" font-size="14" lengthAdjust="spacing" textLength="120.5313" x="498.8586" y="312.6267">json_writer_array</text><line style="stroke:#181818;stroke-width:0.5;" x1="414.8" x2="670.9484" y1="323.78" y2="323.78"/><g data-visibility-modifier="PUBLIC_METHOD"><ellipse cx="424.8" cy="337.4284" fill="#84BE84" rx="3" ry="3" style="stroke:#038048;stroke-width:1;"/></g><text fill="#000000" font-family="sans-serif" font-size="14" lengthAdjust="spacing" textLength="143.1855" x="433.8" y="340.7751">~json_writer_array()</text><line style="stroke:#181818;stroke-width:1;" x1="414.8" x2="670.9484" y1="348.0769" y2="348.0769"/><g data-visibility-modifier="PUBLIC_METHOD"><ellipse cx="424.8" cy="361.7253" fill="#84BE84" rx="3" ry="3" style="stroke:#038048;stroke-width:1;"/></g><text fill="#000000" font-family="sans-serif" font-size="14" lengthAdjust="spacing" textLength="232.1484" x="433.8" y="365.072">write_object(): json_writer_object</text><g data-visibility-modifier="PUBLIC_METHOD"><ellipse cx="424.8" cy="378.0222" fill="#84BE84" rx="3" ry="3" style="stroke:#038048;stroke-width:1;"/></g><text fill="#000000" font-family="sans-serif" font-size="14" lengthAdjust="spacing" textLength="219.7754" x="433.8" y="381.3689">write_array(): json_writer_array</text><g data-visibility-modifier="PUBLIC_METHOD"><ellipse cx="424.8" cy="394.3191" fill="#84BE84" rx="3" ry="3" style="stroke:#038048;stroke-width:1;"/></g><text fill="#000000" font-family="sans-serif" font-size="14" lengthAdjust="spacing" textLength="218.1963" x="433.8" y="397.6657">write_value(value: string_view)</text><g data-visibility-modifier="PUBLIC_METHOD"><ellipse cx="424.8" cy="418.7644" fill="#84BE84" rx="3" ry="3" style="stroke:#038048;stroke-width:1;"/></g><text fill="#000000" font-family="sans-serif" font-size="14" lengthAdjust="spacing" textLength="103.1543" x="433.8" y="413.9626">&#171;T: is_integer&#187;</text><text fill="#000000" font-family="sans-serif" font-size="14" lengthAdjust="spacing" textLength="147.3213" x="433.8" y="430.2595">write_value(value: T)</text><g data-visibility-modifier="PUBLIC_METHOD"><ellipse cx="424.8" cy="443.2097" fill="#84BE84" rx="3" ry="3" style="stroke:#038048;stroke-width:1;"/></g><text fill="#000000" font-family="sans-serif" font-size="14" lengthAdjust="spacing" textLength="160.3438" x="433.8" y="446.5564">write_bool(value: bool)</text><g data-visibility-modifier="PUBLIC_METHOD"><ellipse cx="424.8" cy="459.5066" fill="#84BE84" rx="3" ry="3" style="stroke:#038048;stroke-width:1;"/></g><text fill="#000000" font-family="sans-serif" font-size="14" lengthAdjust="spacing" textLength="78.6475" x="433.8" y="462.8532">write_null()</text><g data-visibility-modifier="PUBLIC_METHOD"><ellipse cx="424.8" cy="475.8034" fill="#84BE84" rx="3" ry="3" style="stroke:#038048;stroke-width:1;"/></g><text fill="#000000" font-family="sans-serif" font-size="14" lengthAdjust="spacing" textLength="46.9834" x="433.8" y="479.1501">close()</text></g><!--class json_writer_context--><g class="entity" data-qualified-name="json_writer_context" data-source-line="35" id="ent0005"><rect fill="#F1F1F1" height="48" rx="2.5" ry="2.5" style="stroke:#181818;stroke-width:0.5;" width="168.5889" x="419.58" y="55.89"/><ellipse cx="434.58" cy="71.89" fill="#ADD1B2" rx="11" ry="11" style="stroke:#181818;stroke-width:1;"/><path d="M437.5488,77.5306 Q436.9706,77.8275 436.33,77.9681 Q435.6894,78.1244 434.9863,78.1244 Q432.4863,78.1244 431.1581,76.4837 Q429.8456,74.8275 429.8456,71.7025 Q429.8456,68.5775 431.1581,66.9212 Q432.4863,65.265 434.9863,65.265 Q435.6894,65.265 436.33,65.4212 Q436.9863,65.5775 437.5488,65.8744 L437.5488,68.5931 Q436.9238,68.015 436.33,67.7494 Q435.7363,67.4681 435.1113,67.4681 Q433.7675,67.4681 433.08,68.5462 Q432.3925,69.6087 432.3925,71.7025 Q432.3925,73.7962 433.08,74.8744 Q433.7675,75.9369 435.1113,75.9369 Q435.7363,75.9369 436.33,75.6712 Q436.9238,75.39 437.5488,74.8119 L437.5488,77.5306 Z " fill="#000000"/><text fill="#000000" font-family="sans-serif" font-size="14" lengthAdjust="spacing" textLength="136.5889" x="448.58" y="76.7367">json_writer_context</text><line style="stroke:#181818;stroke-width:0.5;" x1="420.58" x2="587.1689" y1="87.89" y2="87.89"/><line style="stroke:#181818;stroke-width:0.5;" x1="420.58" x2="587.1689" y1="95.89" y2="95.89"/></g><!--reverse link json_writer to json_writer_context--><g class="link" data-entity-1="ent0002" data-entity-2="ent0005" data-link-type="composition" data-source-line="37" id="lnk6"><path codeLine="37" d="M397.31,79.89 C408.58,79.89 407.85,79.89 419.12,79.89" fill="none" id="json_writer-backto-json_writer_context" style="stroke:#181818;stroke-width:1;"/><polygon fill="#181818" points="385.31,79.89,391.31,83.89,397.31,79.89,391.31,75.89,385.31,79.89" style="stroke:#181818;stroke-width:1;"/></g><!--link json_writer to json_writer_object--><g class="link" data-entity-1="ent0002" data-entity-2="ent0003" data-link-type="dependency" data-source-line="38" id="lnk7"><path codeLine="38" d="M236.51,152.92 C228.84,194.24 220.2154,240.7608 211.8854,285.6208" fill="none" id="json_writer-to-json_writer_object" style="stroke:#181818;stroke-width:1;stroke-dasharray:7,7;"/><polygon fill="#181818" points="210.79,291.52,216.3659,283.4015,211.7028,286.604,208.5003,281.941,210.79,291.52" style="stroke:#181818;stroke-width:1;"/><text fill="#000000" font-family="sans-serif" font-size="13" lengthAdjust="spacing" textLength="57.459" x="226.16" y="226.8469">&#171;create&#187;</text></g><!--link json_writer to json_writer_array--><g class="link" data-entity-1="ent0002" data-entity-2="ent0004" data-link-type="dependency" data-source-line="39" id="lnk8"><path codeLine="39" d="M318.57,152.92 C357.98,194.24 403.8287,242.3184 446.6187,287.1784" fill="none" id="json_writer-to-json_writer_array" style="stroke:#181818;stroke-width:1;stroke-dasharray:7,7;"/><polygon fill="#181818" points="450.76,291.52,447.4425,282.2467,447.3089,287.902,441.6536,287.7684,450.76,291.52" style="stroke:#181818;stroke-width:1;"/><text fill="#000000" font-family="sans-serif" font-size="13" lengthAdjust="spacing" textLength="57.459" x="393.71" y="226.8469">&#171;create&#187;</text></g><!--link json_writer_context to json_writer_object--><g class="link" data-entity-1="ent0005" data-entity-2="ent0003" data-link-type="aggregation" data-source-line="41" id="lnk10"><path codeLine="41" d="M499.47,104.3 C492.52,135.96 476.44,192.83 444.87,230.78 C426.16,253.28 412.9906,266.3944 388.8406,284.2944" fill="none" id="json_writer_context-to-json_writer_object" style="stroke:#181818;stroke-width:1;"/><polygon fill="none" points="379.2,291.44,386.4021,291.0807,388.8406,284.2944,381.6384,284.6537,379.2,291.44" style="stroke:#181818;stroke-width:1;"/></g><!--link json_writer_context to json_writer_array--><g class="link" data-entity-1="ent0005" data-entity-2="ent0004" data-link-type="aggregation" data-source-line="42" id="lnk12"><path codeLine="42" d="M506.84,104.23 C511.84,143.65 520.7297,213.6354 529.0697,279.3754" fill="none" id="json_writer_context-to-json_writer_array" style="stroke:#181818;stroke-width:1;"/><polygon fill="none" points="530.58,291.28,533.7931,284.8243,529.0697,279.3754,525.8567,285.8311,530.58,291.28" style="stroke:#181818;stroke-width:1;"/></g><?plantuml-src jPD1RiCW44Ntd89L5RV51q0MfyYo4Y9q6f4Ia00dZQhcxAM6IZZ6iLMfNbb_tWmpVq1guJq-U6lusQa03dyY7B-dGjgyAGtSY2DGx8DJPizF2ixD58nH44UARVfvoCYrP99624cnGULsTm0PDWqjMybgoGddnEKM6yH4IMqzn2E-49Ata-LolmDUfw6xlRt3PJp-kbuNqehUKzP9w1ucMSzuq6l-TzsMOkMvCW7su1XxCQigRPlos9srUfxzYOvmq-iftgpOmJ1lTGLvjVzvEqfV_khdl7jtlLhZZRJno8-0KFaS7uaZLQg4slQrPRMxJd7NoVWK0p2sa94sCqf0bOgMz8lzv5fpw3S0?></g></svg>