<svg xmlns="http://www.w3.org/2000/svg" xmlns:xlink="http://www.w3.org/1999/xlink" contentStyleType="text/css" data-diagram-type="DESCRIPTION" height="337px" preserveAspectRatio="none" style="width:684px;height:337px;background:#FFFFFF;" version="1.1" viewBox="0 0 684 337" width="684px" zoomAndPan="magnify"><defs/><g><!--entity libcpuid--><g class="entity" data-entity="libcpuid" data-source-line="1" data-uid="ent0002" id="entity_libcpuid"><rect fill="#F1F1F1" height="62.5938" rx="2.5" ry="2.5" style="stroke:#181818;stroke-width:0.5;" width="124.1885" x="276.77" y="129.6"/><rect fill="#F1F1F1" height="10" style="stroke:#181818;stroke-width:0.5;" width="15" x="380.9585" y="134.6"/><rect fill="#F1F1F1" height="2" style="stroke:#181818;stroke-width:0.5;" width="4" x="378.9585" y="136.6"/><rect fill="#F1F1F1" height="2" style="stroke:#181818;stroke-width:0.5;" width="4" x="378.9585" y="140.6"/><text fill="#000000" font-family="sans-serif" font-size="14" font-style="italic" lengthAdjust="spacing" textLength="82.1885" x="292.77" y="162.5951">&#171;Static Lib&#187;</text><text fill="#000000" font-family="sans-serif" font-size="14" lengthAdjust="spacing" textLength="67.9287" x="299.8999" y="178.892">libcpuid.a</text></g><!--entity linux--><g class="entity" data-entity="linux" data-source-line="2" data-uid="ent0003" id="entity_linux"><rect fill="#F1F1F1" height="78.8906" rx="2.5" ry="2.5" style="stroke:#181818;stroke-width:0.5;" width="163.7344" x="7" y="252.19"/><rect fill="#F1F1F1" height="10" style="stroke:#181818;stroke-width:0.5;" width="15" x="150.7344" y="257.19"/><rect fill="#F1F1F1" height="2" style="stroke:#181818;stroke-width:0.5;" width="4" x="148.7344" y="259.19"/><rect fill="#F1F1F1" height="2" style="stroke:#181818;stroke-width:0.5;" width="4" x="148.7344" y="263.19"/><text fill="#000000" font-family="sans-serif" font-size="14" font-style="italic" lengthAdjust="spacing" textLength="118.6582" x="24.5381" y="285.1851">&#171;Linux cpuid.ko&#187;</text><text fill="#000000" font-family="sans-serif" font-size="14" font-style="italic" lengthAdjust="spacing" textLength="121.7344" x="23" y="301.482">&#171;QNX dev-cpuid&#187;</text><text fill="#000000" font-family="sans-serif" font-size="14" lengthAdjust="spacing" textLength="65.3926" x="24.7124" y="317.7789">/dev/cpu/</text><text fill="#000000" font-family="sans-serif" font-size="14" font-style="italic" font-weight="bold" lengthAdjust="spacing" textLength="9.9668" x="90.105" y="317.7789">n</text><text fill="#000000" font-family="sans-serif" font-size="14" lengthAdjust="spacing" textLength="42.9502" x="100.0718" y="317.7789">/cpuid</text></g><!--entity cpuid--><g class="entity" data-entity="cpuid" data-source-line="3" data-uid="ent0004" id="entity_cpuid"><rect fill="#F1F1F1" height="46.2969" rx="2.5" ry="2.5" style="stroke:#181818;stroke-width:0.5;" width="83.374" x="206.18" y="268.49"/><rect fill="#F1F1F1" height="10" style="stroke:#181818;stroke-width:0.5;" width="15" x="269.554" y="273.49"/><rect fill="#F1F1F1" height="2" style="stroke:#181818;stroke-width:0.5;" width="4" x="267.554" y="275.49"/><rect fill="#F1F1F1" height="2" style="stroke:#181818;stroke-width:0.5;" width="4" x="267.554" y="279.49"/><text fill="#000000" font-family="sans-serif" font-size="14" lengthAdjust="spacing" textLength="43.374" x="221.18" y="301.4851">CPUID</text></g><!--entity freebsd--><g class="entity" data-entity="freebsd" data-source-line="4" data-uid="ent0005" id="entity_freebsd"><rect fill="#F1F1F1" height="62.5938" rx="2.5" ry="2.5" style="stroke:#181818;stroke-width:0.5;" width="210.0684" x="324.83" y="260.34"/><rect fill="#F1F1F1" height="10" style="stroke:#181818;stroke-width:0.5;" width="15" x="514.8984" y="265.34"/><rect fill="#F1F1F1" height="2" style="stroke:#181818;stroke-width:0.5;" width="4" x="512.8984" y="267.34"/><rect fill="#F1F1F1" height="2" style="stroke:#181818;stroke-width:0.5;" width="4" x="512.8984" y="271.34"/><text fill="#000000" font-family="sans-serif" font-size="14" font-style="italic" lengthAdjust="spacing" textLength="168.0684" x="340.83" y="293.3351">&#171;FreeBSD cpuctl.kmod&#187;</text><text fill="#000000" font-family="sans-serif" font-size="14" lengthAdjust="spacing" textLength="77.752" x="381.0048" y="309.632">/dev/cpuctl</text><text fill="#000000" font-family="sans-serif" font-size="14" font-style="italic" font-weight="bold" lengthAdjust="spacing" textLength="9.9668" x="458.7568" y="309.632">n</text></g><!--entity XML--><g class="entity" data-entity="XML" data-source-line="5" data-uid="ent0006" id="entity_XML"><rect fill="#F1F1F1" height="46.2969" rx="2.5" ry="2.5" style="stroke:#181818;stroke-width:0.5;" width="108.4961" x="569.62" y="268.49"/><rect fill="#F1F1F1" height="10" style="stroke:#181818;stroke-width:0.5;" width="15" x="658.1161" y="273.49"/><rect fill="#F1F1F1" height="2" style="stroke:#181818;stroke-width:0.5;" width="4" x="656.1161" y="275.49"/><rect fill="#F1F1F1" height="2" style="stroke:#181818;stroke-width:0.5;" width="4" x="656.1161" y="279.49"/><text fill="#000000" font-family="sans-serif" font-size="14" lengthAdjust="spacing" textLength="68.4961" x="584.62" y="301.4851">cpuid.xml</text></g><!--entity dev_cpuid--><g class="entity" data-entity="dev_cpuid" data-source-line="12" data-uid="ent0011" id="entity_dev_cpuid"><rect fill="#F1F1F1" height="62.5938" rx="2.5" ry="2.5" style="stroke:#181818;stroke-width:0.5;" width="109.0703" x="211.33" y="7"/><rect fill="#F1F1F1" height="10" style="stroke:#181818;stroke-width:0.5;" width="15" x="300.4003" y="12"/><rect fill="#F1F1F1" height="2" style="stroke:#181818;stroke-width:0.5;" width="4" x="298.4003" y="14"/><rect fill="#F1F1F1" height="2" style="stroke:#181818;stroke-width:0.5;" width="4" x="298.4003" y="18"/><text fill="#000000" font-family="sans-serif" font-size="14" font-style="italic" lengthAdjust="spacing" textLength="48.2139" x="236.7582" y="39.9951">&#171;QNX&#187;</text><text fill="#000000" font-family="sans-serif" font-size="14" lengthAdjust="spacing" textLength="69.0703" x="226.33" y="56.292">dev-cpuid</text></g><!--entity cpuid_test--><g class="entity" data-entity="cpuid_test" data-source-line="13" data-uid="ent0012" id="entity_cpuid_test"><rect fill="#F1F1F1" height="46.2969" rx="2.5" ry="2.5" style="stroke:#181818;stroke-width:0.5;" width="112.1191" x="355.81" y="15.15"/><rect fill="#F1F1F1" height="10" style="stroke:#181818;stroke-width:0.5;" width="15" x="447.9291" y="20.15"/><rect fill="#F1F1F1" height="2" style="stroke:#181818;stroke-width:0.5;" width="4" x="445.9291" y="22.15"/><rect fill="#F1F1F1" height="2" style="stroke:#181818;stroke-width:0.5;" width="4" x="445.9291" y="26.15"/><text fill="#000000" font-family="sans-serif" font-size="14" lengthAdjust="spacing" textLength="72.1191" x="370.81" y="48.1451">cpuid_test</text></g><!--link libcpuid to linux--><g class="link" data-entity-1="libcpuid" data-entity-2="linux" data-source-line="7" data-uid="lnk7" id="link_libcpuid_linux"><path d="M279.3,192.57 C244.79,210.34 206.3344,230.1433 169.4544,249.1333" fill="none" id="libcpuid-to-linux" style="stroke:#181818;stroke-width:1;"/><polygon fill="#181818" points="164.12,251.88,173.9527,251.3161,168.5653,249.5911,170.2904,244.2037,164.12,251.88" style="stroke:#181818;stroke-width:1;"/></g><!--link libcpuid to cpuid--><g class="link" data-entity-1="libcpuid" data-entity-2="cpuid" data-source-line="8" data-uid="lnk8" id="link_libcpuid_cpuid"><path d="M317.3,192.4 C300.9,215.6 282.1727,242.1 267.3327,263.1" fill="none" id="libcpuid-to-cpuid" style="stroke:#181818;stroke-width:1;"/><polygon fill="#181818" points="263.87,268,272.3307,262.9584,266.7556,263.9167,265.7973,258.3416,263.87,268" style="stroke:#181818;stroke-width:1;"/></g><!--link libcpuid to freebsd--><g class="link" data-entity-1="libcpuid" data-entity-2="freebsd" data-source-line="9" data-uid="lnk9" id="link_libcpuid_freebsd"><path d="M360.43,192.4 C374.83,212.78 390.2474,234.58 404.6774,255" fill="none" id="libcpuid-to-freebsd" style="stroke:#181818;stroke-width:1;"/><polygon fill="#181818" points="408.14,259.9,406.2127,250.2416,405.2545,255.8167,399.6794,254.8584,408.14,259.9" style="stroke:#181818;stroke-width:1;"/></g><!--link libcpuid to XML--><g class="link" data-entity-1="libcpuid" data-entity-2="XML" data-source-line="10" data-uid="lnk10" id="link_libcpuid_XML"><path d="M401.38,186.4 C444.44,203.74 502.71,228.1 552.87,252.19 C562.98,257.04 568.4175,259.7748 578.3875,265.1448" fill="none" id="libcpuid-to-XML" style="stroke:#181818;stroke-width:1;"/><polygon fill="#181818" points="583.67,267.99,577.6431,260.2005,579.2679,265.619,573.8494,267.2438,583.67,267.99" style="stroke:#181818;stroke-width:1;"/></g><!--link cpuid_test to libcpuid--><g class="link" data-entity-1="cpuid_test" data-entity-2="libcpuid" data-source-line="15" data-uid="lnk13" id="link_cpuid_test_libcpuid"><path d="M398.31,61.7 C386.76,80.77 373.177,103.2171 360.417,124.2971" fill="none" id="cpuid_test-to-libcpuid" style="stroke:#181818;stroke-width:1;"/><polygon fill="#181818" points="357.31,129.43,365.3924,123.802,359.8992,125.1526,358.5486,119.6593,357.31,129.43" style="stroke:#181818;stroke-width:1;"/></g><!--link dev_cpuid to libcpuid--><g class="link" data-entity-1="dev_cpuid" data-entity-2="libcpuid" data-source-line="16" data-uid="lnk14" id="link_dev_cpuid_libcpuid"><path d="M284.48,70.04 C295.46,88.19 306.2031,105.9371 317.1831,124.0771" fill="none" id="dev_cpuid-to-libcpuid" style="stroke:#181818;stroke-width:1;"/><polygon fill="#181818" points="320.29,129.21,319.0516,119.4393,317.7009,124.9326,312.2077,123.5819,320.29,129.21" style="stroke:#181818;stroke-width:1;"/></g><!--SRC=[RL3D2eCm3Bxx5CMZe7q1wM6JmS2D3Hbu4wqTb6ahimuVVp6TtIex9VsQxoVXkX-q4igGJZPyc6IRrAGUtOkaQM5g8pd9PSDOmDryI5lneZ14euXIHPU2bD3orJG3ESTgXH-QCO2kvv80DKRGbznVRiSC-VZvpusRpldXvFqfH3CkGG_GxOgCsAdaqUkDl8qnznqIorCU16xFk8sPJRt1R18V-tXkK1JyiNDBeXsyglMaS08l6UAL4QC10TUlcQn7y1Nmy3S0]--></g></svg>