<svg xmlns="http://www.w3.org/2000/svg" xmlns:xlink="http://www.w3.org/1999/xlink" contentStyleType="text/css" data-diagram-type="DESCRIPTION" height="337px" preserveAspectRatio="none" style="width:540px;height:337px;background:#FFFFFF;" version="1.1" viewBox="0 0 540 337" width="540px" zoomAndPan="magnify"><defs/><g><!--entity libcpuid--><g class="entity" data-entity="libcpuid" data-source-line="1" data-uid="ent0002" id="entity_libcpuid"><rect fill="#F1F1F1" height="62.5938" rx="2.5" ry="2.5" style="stroke:#181818;stroke-width:0.5;" width="124.1885" x="185.77" y="129.6"/><rect fill="#F1F1F1" height="10" style="stroke:#181818;stroke-width:0.5;" width="15" x="289.9585" y="134.6"/><rect fill="#F1F1F1" height="2" style="stroke:#181818;stroke-width:0.5;" width="4" x="287.9585" y="136.6"/><rect fill="#F1F1F1" height="2" style="stroke:#181818;stroke-width:0.5;" width="4" x="287.9585" y="140.6"/><text fill="#000000" font-family="sans-serif" font-size="14" font-style="italic" lengthAdjust="spacing" textLength="82.1885" x="201.77" y="162.5951">&#171;Static Lib&#187;</text><text fill="#000000" font-family="sans-serif" font-size="14" lengthAdjust="spacing" textLength="67.9287" x="208.8999" y="178.892">libcpuid.a</text></g><!--entity linux--><g class="entity" data-entity="linux" data-source-line="2" data-uid="ent0003" id="entity_linux"><rect fill="#F1F1F1" height="78.8906" rx="2.5" ry="2.5" style="stroke:#181818;stroke-width:0.5;" width="163.7344" x="7" y="252.19"/><rect fill="#F1F1F1" height="10" style="stroke:#181818;stroke-width:0.5;" width="15" x="150.7344" y="257.19"/><rect fill="#F1F1F1" height="2" style="stroke:#181818;stroke-width:0.5;" width="4" x="148.7344" y="259.19"/><rect fill="#F1F1F1" height="2" style="stroke:#181818;stroke-width:0.5;" width="4" x="148.7344" y="263.19"/><text fill="#000000" font-family="sans-serif" font-size="14" font-style="italic" lengthAdjust="spacing" textLength="118.6582" x="24.5381" y="285.1851">&#171;Linux cpuid.ko&#187;</text><text fill="#000000" font-family="sans-serif" font-size="14" font-style="italic" lengthAdjust="spacing" textLength="121.7344" x="23" y="301.482">&#171;QNX dev-cpuid&#187;</text><text fill="#000000" font-family="sans-serif" font-size="14" lengthAdjust="spacing" textLength="65.3926" x="24.7124" y="317.7789">/dev/cpu/</text><text fill="#000000" font-family="sans-serif" font-size="14" font-style="italic" font-weight="bold" lengthAdjust="spacing" textLength="9.9668" x="90.105" y="317.7789">n</text><text fill="#000000" font-family="sans-serif" font-size="14" lengthAdjust="spacing" textLength="42.9502" x="100.0718" y="317.7789">/cpuid</text></g><!--entity cpuid--><g class="entity" data-entity="cpuid" data-source-line="3" data-uid="ent0004" id="entity_cpuid"><rect fill="#F1F1F1" height="46.2969" rx="2.5" ry="2.5" style="stroke:#181818;stroke-width:0.5;" width="83.374" x="206.18" y="268.49"/><rect fill="#F1F1F1" height="10" style="stroke:#181818;stroke-width:0.5;" width="15" x="269.554" y="273.49"/><rect fill="#F1F1F1" height="2" style="stroke:#181818;stroke-width:0.5;" width="4" x="267.554" y="275.49"/><rect fill="#F1F1F1" height="2" style="stroke:#181818;stroke-width:0.5;" width="4" x="267.554" y="279.49"/><text fill="#000000" font-family="sans-serif" font-size="14" lengthAdjust="spacing" textLength="43.374" x="221.18" y="301.4851">CPUID</text></g><!--entity freebsd--><g class="entity" data-entity="freebsd" data-source-line="4" data-uid="ent0005" id="entity_freebsd"><rect fill="#F1F1F1" height="62.5938" rx="2.5" ry="2.5" style="stroke:#181818;stroke-width:0.5;" width="210.0684" x="324.83" y="260.34"/><rect fill="#F1F1F1" height="10" style="stroke:#181818;stroke-width:0.5;" width="15" x="514.8984" y="265.34"/><rect fill="#F1F1F1" height="2" style="stroke:#181818;stroke-width:0.5;" width="4" x="512.8984" y="267.34"/><rect fill="#F1F1F1" height="2" style="stroke:#181818;stroke-width:0.5;" width="4" x="512.8984" y="271.34"/><text fill="#000000" font-family="sans-serif" font-size="14" font-style="italic" lengthAdjust="spacing" textLength="168.0684" x="340.83" y="293.3351">&#171;FreeBSD cpuctl.kmod&#187;</text><text fill="#000000" font-family="sans-serif" font-size="14" lengthAdjust="spacing" textLength="77.752" x="381.0048" y="309.632">/dev/cpuctl</text><text fill="#000000" font-family="sans-serif" font-size="14" font-style="italic" font-weight="bold" lengthAdjust="spacing" textLength="9.9668" x="458.7568" y="309.632">n</text></g><!--entity dev_cpuid--><g class="entity" data-entity="dev_cpuid" data-source-line="10" data-uid="ent0009" id="entity_dev_cpuid"><rect fill="#F1F1F1" height="62.5938" rx="2.5" ry="2.5" style="stroke:#181818;stroke-width:0.5;" width="109.0703" x="120.33" y="7"/><rect fill="#F1F1F1" height="10" style="stroke:#181818;stroke-width:0.5;" width="15" x="209.4003" y="12"/><rect fill="#F1F1F1" height="2" style="stroke:#181818;stroke-width:0.5;" width="4" x="207.4003" y="14"/><rect fill="#F1F1F1" height="2" style="stroke:#181818;stroke-width:0.5;" width="4" x="207.4003" y="18"/><text fill="#000000" font-family="sans-serif" font-size="14" font-style="italic" lengthAdjust="spacing" textLength="48.2139" x="145.7582" y="39.9951">&#171;QNX&#187;</text><text fill="#000000" font-family="sans-serif" font-size="14" lengthAdjust="spacing" textLength="69.0703" x="135.33" y="56.292">dev-cpuid</text></g><!--entity cpuid_test--><g class="entity" data-entity="cpuid_test" data-source-line="11" data-uid="ent0010" id="entity_cpuid_test"><rect fill="#F1F1F1" height="46.2969" rx="2.5" ry="2.5" style="stroke:#181818;stroke-width:0.5;" width="112.1191" x="264.81" y="15.15"/><rect fill="#F1F1F1" height="10" style="stroke:#181818;stroke-width:0.5;" width="15" x="356.9291" y="20.15"/><rect fill="#F1F1F1" height="2" style="stroke:#181818;stroke-width:0.5;" width="4" x="354.9291" y="22.15"/><rect fill="#F1F1F1" height="2" style="stroke:#181818;stroke-width:0.5;" width="4" x="354.9291" y="26.15"/><text fill="#000000" font-family="sans-serif" font-size="14" lengthAdjust="spacing" textLength="72.1191" x="279.81" y="48.1451">cpuid_test</text></g><!--link libcpuid to linux--><g class="link" data-entity-1="libcpuid" data-entity-2="linux" data-source-line="6" data-uid="lnk6" id="link_libcpuid_linux"><path d="M210.19,192.4 C188.24,210.17 165.0137,228.985 141.5037,248.015" fill="none" id="libcpuid-to-linux" style="stroke:#181818;stroke-width:1;"/><polygon fill="#181818" points="136.84,251.79,146.3521,249.2367,140.7264,248.6442,141.3188,243.0185,136.84,251.79" style="stroke:#181818;stroke-width:1;"/></g><!--link libcpuid to cpuid--><g class="link" data-entity-1="libcpuid" data-entity-2="cpuid" data-source-line="7" data-uid="lnk7" id="link_libcpuid_cpuid"><path d="M247.87,192.4 C247.87,215.6 247.87,241 247.87,262" fill="none" id="libcpuid-to-cpuid" style="stroke:#181818;stroke-width:1;"/><polygon fill="#181818" points="247.87,268,251.87,259,247.87,263,243.87,259,247.87,268" style="stroke:#181818;stroke-width:1;"/></g><!--link libcpuid to freebsd--><g class="link" data-entity-1="libcpuid" data-entity-2="freebsd" data-source-line="8" data-uid="lnk8" id="link_libcpuid_freebsd"><path d="M291,192.4 C319.8,212.78 352.6521,236.0144 381.5121,256.4344" fill="none" id="libcpuid-to-freebsd" style="stroke:#181818;stroke-width:1;"/><polygon fill="#181818" points="386.41,259.9,381.3735,251.4364,382.3284,257.012,376.7527,257.967,386.41,259.9" style="stroke:#181818;stroke-width:1;"/></g><!--link cpuid_test to libcpuid--><g class="link" data-entity-1="cpuid_test" data-entity-2="libcpuid" data-source-line="13" data-uid="lnk11" id="link_cpuid_test_libcpuid"><path d="M307.31,61.7 C295.76,80.77 282.177,103.2171 269.417,124.2971" fill="none" id="cpuid_test-to-libcpuid" style="stroke:#181818;stroke-width:1;"/><polygon fill="#181818" points="266.31,129.43,274.3924,123.802,268.8992,125.1526,267.5486,119.6593,266.31,129.43" style="stroke:#181818;stroke-width:1;"/></g><!--link dev_cpuid to libcpuid--><g class="link" data-entity-1="dev_cpuid" data-entity-2="libcpuid" data-source-line="14" data-uid="lnk12" id="link_dev_cpuid_libcpuid"><path d="M193.48,70.04 C204.46,88.19 215.2031,105.9371 226.1831,124.0771" fill="none" id="dev_cpuid-to-libcpuid" style="stroke:#181818;stroke-width:1;"/><polygon fill="#181818" points="229.29,129.21,228.0516,119.4393,226.7009,124.9326,221.2077,123.5819,229.29,129.21" style="stroke:#181818;stroke-width:1;"/></g><!--SRC=[RL3D2eCm3BxtAOf7GVi2qiCcWu78XWns4wqT5BMLMSSUVp6TtJfsIl8rtqygp3WPBRMbWsh5jAWkRMWp-ubcMMKRgmGjLCiv4Nu_OfryC5XYSSoOPcj1IkJuUda2kS3gX7l3EK3dyag1cY0OIkvFbsEEV7pyvoRiuFrmytQNiftNe0VeTbLEtLRQZsQL9_wKf4ku2_Q3ERCGUykIxmm-DHh3L6z_13S5bo1UMpbR4F3zbi3va8z0WBy0]--></g></svg>